<svg xmlns="http://www.w3.org/2000/svg" viewBox="0 0 500 500"><g id="freepik--Ball--inject-2"><g><circle cx="248.64809" cy="254.6445" r="139.9452" style="fill:#FF725E;"></circle><g style="opacity:.3;"><path d="M126.5799,219.9939c1.2372-1.1466,2.5909-2.2063,4.0047-3.2314,1.4414-.9825,2.954-1.916,4.5671-2.7129,1.6199-.7772,3.3145-1.4638,5.0916-1.9747,.8968-.2214,1.8014-.4447,2.7211-.632,.4653-.0684,.9328-.1372,1.4022-.2062l.7046-.1063c.2361-.0309,.4769-.0343,.7156-.0533,3.8181-.3062,7.8481,.0478,11.8463,1.1505,.4641,.1302,.9284,.2701,1.3922,.4163,.753-1.7839,1.5268-3.5648,2.3344-5.3403-.7605-.2327-1.5225-.4535-2.2869-.6484-4.6149-1.1593-9.3375-1.4724-13.833-.978-.2811,.0307-.5627,.0462-.8411,.0899l-.8319,.1463c-.5526,.099-1.1026,.1975-1.6503,.2956-1.0838,.2512-2.1507,.5474-3.1991,.8478-2.0821,.6694-3.9029,.8266-6.1572,1.9486-1.8652,.9284-3.3766,1.846-4.9638,3.0223-1.5546,1.2155-4.1974,3.0424-5.5153,4.3682-4.9556,4.9406-9.1882,10.6254-11.5548,15.6001"></path><path d="M169.42289,217.4881c7.6657,4.6673,14.1064,11.9363,19.4829,20.3687,5.3939,8.4503,9.7651,18.1155,14.3026,28.0694,4.5147,9.9437,8.8033,19.7539,13.1787,29.1622,2.1896,4.7034,4.3788,9.3145,6.6331,13.7881,1.1051,2.2452,2.2689,4.4392,3.3901,6.619,1.1695,2.1596,2.2871,4.3113,3.4774,6.3971,9.2657,16.8102,19.7888,30.8889,30.109,41.243,10.2916,10.4271,17.3812,17.4836,24.5962,21.2717,1.7829,.9947,3.45111,1.7224,4.881,2.3706,.7185,.3179,1.3737,.6241,1.9904,.8682,.1218,.0443,.3341,.084,.4516,.1267,.673-.2003,3.8793-1.3415,4.5607-1.5695-.0357-.0215,0,0,0,0,0,0-.7828-.133-1.34559-.4608-.55921-.3337-1.15551-.7273-1.81191-1.1297-1.3068-.8174-2.8403-1.7029-4.48-2.8428-6.6448-4.3733-15.8904-11.3433-25.4273-21.8453-9.5756-10.4538-19.3512-24.3112-28.1393-40.9366-1.12849-2.0599-2.1918-4.194-3.3064-6.3284-1.0698-2.1618-2.1818-4.33-3.2428-6.5592-2.1626-4.4338-4.2781-9.0166-6.4094-13.6989-4.2133-9.4294-8.5756-19.1921-13.0436-29.1913-4.5525-9.9728-9.0536-19.8722-14.87529-28.8391-1.46471-2.2297-2.96941-4.4168-4.60971-6.4903-.7901-1.0555-1.6642-2.0488-2.49629-3.0601-.88341-.9751-1.72771-1.9719-2.65391-2.8946-1.7892-1.8935-3.7247-3.6317-5.72909-5.2725-1.024-.7878-2.02491-1.5927-3.09181-2.2969-.5296-.3565-1.0391-.7384-1.5816-1.0692-.5407-.3328-1.0798-.6645-1.6174-.9952-1.675-1.0086-4.37-2.554-6.122-3.346-.8391,1.8228-1.65919,3.8867-2.4411,5.7172,1.4864,.7128,3.94291,1.9287,5.3708,2.8245Z"></path><path d="M372.75929,316.1841c-.4561-.7034-.9651-1.4356-1.4962-2.2175-1.0779-1.5547-2.276-3.2825-3.5869-5.1734-1.3417-1.8697-2.85519-3.8594-4.4646-6.0129-1.5899-2.1698-3.4194-4.3857-5.3164-6.7739-1.8809-2.4026-3.9907-4.8392-6.1815-7.4218-2.1644-2.607-4.58869-5.1977-7.0504-7.9586-1.2228-1.3884-2.5468-2.732-3.8642-4.1321-1.32809-1.3895-2.6657-2.8209-4.0588-4.2455-1.411-1.4071-2.846-2.8383-4.3041-4.2924-.7324-.724-1.4601-1.465-2.2134-2.1904-.7597-.7189-1.5251-1.4433-2.296-2.1731-1.5472-1.4542-3.0997-2.9493-4.7086-4.4264-1.6258-1.4587-3.2736-2.937-4.9419-4.434-1.6538-1.5148-3.4046-2.9596-5.1475-4.4545-1.7532-1.4825-3.5015-3.0135-5.3426-4.47-1.8266-1.4747-3.6724-2.965-5.53619-4.4697-1.90111-1.4577-3.82051-2.9295-5.757-4.4143-7.79921-5.8696-16.09251-11.6604-24.82231-17.2276-8.7594-5.5277-17.534-10.5649-26.1695-15.1208-2.1689-1.1196-4.3188-2.2292-6.4479-3.3282-2.1561-1.0452-4.2911-2.0803-6.404-3.1047-2.1026-1.0452-4.2328-1.9746-6.3214-2.9293-2.0954-.9399-4.1488-1.9084-6.2242-2.7591-2.0655-.8718-4.1053-1.7327-6.118-2.5821-2.0221-.8262-4.0364-1.5938-6.0115-2.3739-.9888-.3866-1.9703-.7704-2.9445-1.1513-.9775-.3725-1.9579-.7151-2.925-1.0692-1.9371-.6996-3.8434-1.3881-5.7178-2.065-1.8824-.6532-3.7474-1.2535-5.5706-1.8631-1.8279-.5953-3.6077-1.2205-5.3849-1.7351-.3652-.1082-.721-.217-1.0827-.3256-.0344,.0498-.6904-.05-.725,0-.4015,.6268-.8949,.8935-1.4438,1.401-.8237,.7617-2.9225,2.2317-.5916,2.8936,.7515,.2591,1.5073,.5189,2.2743,.7763,1.7333,.5697,3.4688,1.2475,5.2516,1.8929,1.7779,.6597,3.597,1.3076,5.4333,2.0059,1.8284,.7187,3.688,1.4498,5.5776,2.1926,.9436,.374,1.9003,.7359,2.85391,1.1269,.95059,.3988,1.90839,.8005,2.87319,1.2053,1.9274,.8146,3.8936,1.614,5.8676,2.4693,1.96521,.8754,3.9568,1.7626,5.9734,2.661,2.0271,.8742,4.0325,1.8635,6.08,2.8213,2.04081,.9725,4.1232,1.9168,6.1785,2.9742,2.06631,1.0334,4.1546,2.0777,6.2631,3.1323,2.0839,1.1023,4.1878,2.2153,6.3106,3.3383,8.4549,4.5578,17.0608,9.5498,25.6755,14.9857,8.5855,5.4756,16.7658,11.1329,24.4899,16.8384,1.9199,1.4417,3.8228,2.8705,5.7077,4.2857,1.8521,1.458,3.6862,2.9019,5.5012,4.3307,1.8321,1.4085,3.57331,2.8899,5.32231,4.3214,1.73859,1.444,3.48779,2.8364,5.14219,4.2976,1.67181,1.4415,3.3229,2.8651,4.9519,4.2697,1.6146,1.4212,3.1755,2.8592,4.7335,4.2555,.7772,.7004,1.5487,1.3956,2.3143,2.0856,.7602,.696,1.495,1.4073,2.2355,2.1015,1.4769,1.3928,2.93061,2.7636,4.3598,4.1113,1.4141,1.3635,2.7752,2.7332,4.1296,4.0605,1.3434,1.3378,2.6961,2.6188,3.9499,3.9441,2.5239,2.6345,5.0204,5.0976,7.2661,7.5759,2.2724,2.4541,4.4733,4.7616,6.454,7.0348,1.997,2.2587,3.9355,4.3454,5.6424,6.3862,1.7364,2.0186,9.6101,14.9294,11.098,16.6591l2.1604-4.1086c-.3881-.6167-.45359-.7208-.9003-1.4305Z"></path><path d="M177.99209,177.3872c-.9217-.2672-1.8367-.5245-2.74209-.7603-3.24291-.8815-6.32061-1.7518-9.27091-2.4297-2.9442-.6986-5.7053-1.4094-8.3238-1.9231-2.612-.5384-5.0364-1.0598-7.2807-1.4768-2.2502-.3803-4.3065-.7278-6.1567-1.0405-.9258-.1473-1.7977-.2958-2.6215-.4087-.8254-.1016-1.5973-.1967-2.3146-.285-.14-.0164-1.1977-.0305-1.3335-.0461-.3918,.5354-1.7027,2.0744-2.0871,2.6156,.3846,.1048,2.5236,.3682,2.949,.4803,.6953,.179,1.5788,.1415,2.3789,.3475,.7977,.2172,1.5596,.3699,2.4591,.6147,1.8003,.476,3.8626,.1548,6.0523,.7337,2.1805,.6089,4.5489,1.2703,7.0935,1.9809,2.55209,.6746,5.24339,1.539,8.11369,2.3832,2.8764,.8234,5.8767,1.8312,9.0387,2.8412,.4683,.1441,.9433,.3021,1.416,.4554,.7858-1.2199,1.569-2.4362,2.3488-3.6467l.2809-.4356Z"></path><path d="M203.04529,153.6258c.5739,.1926,1.9466,.5954,2.5319,.7776,1.3969,.4393,2.8257,.8155,4.282,1.2359,1.4615,.3895,2.9595,.7525,4.4834,1.124,6.1128,1.402,12.7368,2.4743,19.7228,3.2183,6.9867,.7287,14.3325,1.1607,21.9123,1.4026,7.5821,.2603,15.402,.3353,23.3597,.5407,3.9791,.0992,7.9005,.2245,11.7511,.4179,3.8526,.1823,7.6353,.4282,11.3339,.7641,7.4032,.6382,14.4637,1.6727,21.0761,3.075,6.606,1.4453,12.7164,3.2919,18.2384,5.5179,5.5113,2.2415,10.4187,4.8165,14.6563,7.5049,4.2363,2.6927,7.8166,5.4836,10.7343,8.1632,.7303,.6686,1.3934,1.3522,2.0599,1.9889,.3254,.3248,.6662,.6271,.9632,.9525,.2979,.325,.5899,.6433,.8758,.955,.567,.6275,1.1397,1.2093,1.6414,1.7963,.4918,.5956,.9598,1.1623,1.403,1.6991,.7399,.8381,1.1,.4772,1.6443,1.2071-1.49609-3.6533-2.94709-6.043-4.7754-9.5255-.3969-.4649-.802-.9352-1.2371-1.4042-2.8243-3.0527-6.3965-6.24-10.7059-9.3169-4.3105-3.073-9.3693-6.019-15.0999-8.5918-5.7354-2.5572-12.1644-4.7008-19.02979-6.3604-6.88111-1.6212-14.21481-2.8134-21.82741-3.5519-3.8061-.3865-7.6819-.6692-11.6087-.8759-3.9278-.2181-7.90689-.3556-11.9237-.4558-8.04-.2071-15.8454-.2397-23.3461-.4175-7.50309-.1592-14.70009-.467-21.5134-1.0256-6.8089-.5737-13.2256-1.4281-19.1503-2.5671-2.78739-.5579-6.5139-1.6942-9.063-2.3562-.248,.2536-.2739,.8202-.5227,1.0748-.9668,.9895-1.9078,2.0125-2.8664,3.033Z"></path><g><path d="M181.48049,131.842c0-.0094-.4147,1.4168,0,0h0Z"></path><path d="M199.38159,147.2882c-2.3635-1.0092-4.5029-2.1631-6.3457-3.4763-1.8305-1.3076-3.4431-2.7657-4.6316-4.2824-2.435-3.0803-3.58429-6.4609-3.9549-9.2283-.0311-.2277-.0238-.1025-.0131,.0069-.8215,.4471-2.1491,1.0729-2.9558,1.5339,.0122,3.2474,.3592,6.6467,2.9724,10.5827,2.6313,3.9322,7.8637,6.5812,12.98011,9.0851,.15759,.0778,.32289,.1485,.48219,.2249,1.1225-1.2478,2.2509-2.4744,3.385-3.6793-.6548-.2469-1.2963-.5015-1.9186-.7672Z"></path></g><path d="M182.30529,181.2158l.0985-.1479c.3705-.5565,.7405-1.1122,1.1096-1.6664,5.507-8.3956,11.39361-16.1417,17.4571-23.2061,.9437-1.0997,1.891-2.1857,2.8427-3.252,.245-.2743,.486-.5445,.7301-.8178,.6365-.713,1.2735-1.4265,1.9041-2.1329,.8935-.9552,1.7768-1.9101,2.674-2.8339,1.7819-1.8635,3.5789-3.6536,5.3851-5.3725,3.6073-3.4443,7.2688-6.5824,10.9687-9.3679,3.6903-2.8017,7.44681-5.1987,11.1795-7.2451,.9292-.5212,1.8772-.9735,2.8002-1.458,.9294-.4143,1.8328-.8388,2.756-1.224,.9434-.3514,1.8682-.7181,2.7986-1.0507,.9444-.306,1.8782-.6085,2.8009-.9074,3.7322-1.107,7.3732-1.9279,10.8415-2.5885,3.4777-.6032,6.7793-1.0967,9.8839-1.3739,.1461-.0143,.2856-.0243,.4308-.0379-5.12259-.9203-10.3442-1.5398-15.6495-1.8336-2.1626,.4011-4.3768,.8714-6.6498,1.4572-.988,.2818-1.9875,.5671-2.9986,.8556-1.0074,.3206-2.02169,.682-3.0503,1.0296-1.0225,.3866-2.05539,.8293-3.0935,1.2584-.9926,.4804-2.01389,.9325-3.01289,1.4536-4.01431,2.0473-8.04751,4.4761-11.98651,7.3195-3.9507,2.8282-7.8394,6.0215-11.6444,9.5178-1.9052,1.7451-3.795,3.5614-5.6608,5.4477-.9406,.9365-1.8628,1.9011-2.7961,2.8678-.9104,.9887-1.8268,1.9837-2.749,2.985-.3766,.4094-.7499,.8327-1.12519,1.2474-1.08021,1.1932-2.155,2.4078-3.22421,3.6435-5.8325,6.7403-11.4902,14.0981-16.7959,22.0639-.4174,.618-.8356,1.2375-1.2548,1.8582-.308,.4925-.6169,.9865-.9259,1.4805-.0901,.144-.1798,.2873-.2699,.4314-.7489,1.1987-1.5012,2.4031-2.2559,3.6111l-.1489,.2385c-.8268,1.2744-1.5453,2.6265-2.3217,3.9481-.7636,1.3301-1.5301,2.6652-2.2993,4.0053-.7222,1.3684-1.4468,2.7419-2.1741,4.1202-.3625,.6898-.7256,1.3809-1.0893,2.0731-.3692,.6893-.7274,1.3861-1.0577,2.0996-.6785,1.4174-1.3592,2.8394-2.042,4.2659-.34039,.7138-.6813,1.4288-1.0227,2.1448-.31569,.7289-.6318,1.4588-.9485,2.1899-.0727,.1654-.14,.3317-.2124,.4971-.7692,1.7582-1.5063,3.5218-2.2235,5.2883-3.9737,9.7865-7.1612,19.6805-9.52529,29.4832-2.853,11.7334-4.4574,23.3525-5.0648,34.4521-.6071,11.1036-.2231,21.6932,.8594,31.5035,1.1135,9.8112,2.9382,18.8316,5.0812,26.911,1.7645,6.869,5.3284,18.9372,7.449,24.3789,1.8549,1.7817,4.3361,3.4865,6.2863,5.1574-.45209-1.1785-2.8826-8.2979-3.3416-9.5569-2.1084-6.1257-4.4102-13.1443-6.171-21.1171-1.8216-7.9474-3.3509-16.7695-4.2158-26.3241-.8338-9.554-1.016-19.8287-.2748-30.5722,.7419-10.7391,2.4092-21.9469,5.2514-33.2911,2.3664-9.52,5.5099-19.1361,9.3993-28.6651,.733-1.7959,1.4838-3.5898,2.2705-5.3782,.0133-.0302,.0255-.0605,.0388-.0907,.3067-.7092,.6128-1.4173,.9185-2.1243,.331-.6948,.66161-1.3885,.99161-2.0811,.66059-1.3851,1.31909-2.7657,1.97549-4.1419,.3189-.6931,.6654-1.37,1.0227-2.0396,.3517-.6727,.7026-1.3443,1.053-2.0147,.7017-1.3404,1.4009-2.676,2.0976-4.0069,.7423-1.3042,1.4818-2.6037,2.2186-3.8982,.7488-1.2868,1.43861-2.6045,2.2364-3.8464,.3129-.5071,.6229-1.0097,.9347-1.5152,.4607-.7469,.9226-1.4956,1.3812-2.2388,.3841-.6234,.76731-1.2454,1.1496-1.8661Z"></path></g><g><path d="M156.19019,209.0873c-4.6149-1.1593-9.3374-1.4724-13.833-.978-.281,.0307-.5626,.0462-.8411,.0899l-.8318,.1463c-.5526,.099-1.1027,.1975-1.6503,.2956-1.0839,.2512-2.1507,.5474-3.1992,.8478-2.0821,.6694-4.0396,1.5375-5.8829,2.5051-1.8351,.9866-3.5248,2.1151-5.112,3.2914-1.5546,1.2155-3.0194,2.4658-4.3372,3.7916-4.9556,4.9406-8.2979,10.3764-10.6645,15.351-.5202,3.6319-.8997,7.3085-1.1353,11.0248,1.0803-2.5846,2.3559-5.4035,3.9341-8.3693,1.3049-2.4275,2.7988-4.9523,4.6233-7.4323,1.8303-2.4741,3.9399-4.9581,6.437-7.2252,1.2372-1.1466,2.591-2.2063,4.0048-3.2314,1.4414-.9825,2.9539-1.9161,4.5671-2.7129,1.6199-.7772,3.3145-1.4638,5.0916-1.9747,.8968-.2214,1.8013-.4447,2.7211-.632,.4653-.0684,.9328-.1372,1.4022-.2062l.7046-.1063c.2361-.0309,.4769-.0344,.7155-.0533,3.8182-.3062,7.8481,.0478,11.8463,1.1505,.4641,.1301,.9284,.2701,1.3922,.4163,.7531-1.7839,1.5269-3.5649,2.3344-5.3404-.7604-.2326-1.5224-.4534-2.2869-.6483Z" style="fill:#263238;"></path><path d="M166.47159,219.8473c7.5453,4.6243,13.8849,11.8263,19.177,20.1808,5.3092,8.3724,9.6118,17.9485,14.078,27.8105,4.4439,9.852,8.6651,19.5716,12.9718,28.8932,2.1553,4.66,4.3101,9.2285,6.5289,13.6609,1.0878,2.2245,2.2333,4.3982,3.3369,6.5579,1.1511,2.1397,2.2512,4.2715,3.42281,6.338,9.12019,16.6552,19.47809,30.604,29.63629,40.8626,10.1299,10.3309,19.98571,16.8991,27.0874,20.6523,1.7549,.9855,3.3969,1.7065,4.8044,2.3487,.7072,.315,1.3521,.6184,1.9591,.8602,.12,.0439,.7256,.2272,.8413,.2695,.6686-.2071,1.3157-.4045,1.9799-.6213-.0352-.0213-.5475-.2065-.5833-.2281-.4497-.2636-.9522-.5582-1.5062-.883-.5504-.3306-1.1373-.7205-1.7835-1.1193-1.2862-.8098-2.7956-1.6871-4.4096-2.8166-6.5405-4.3328-15.641-11.2386-25.0281-21.6437-9.4252-10.3574-19.0473-24.0869-27.6975-40.5589-1.1107-2.041-2.1573-4.1553-3.2544-6.2701-1.053-2.1418-2.1475-4.29-3.1919-6.4986-2.1287-4.3929-4.21089-8.9334-6.3088-13.5726-4.14709-9.3423-8.4409-19.015-12.8387-28.922-4.481-9.8807-8.9115-19.6888-14.6418-28.573-1.4417-2.2091-2.9227-4.376-4.5373-6.4304-.7777-1.0457-1.638-2.0299-2.4571-3.0319-.8695-.9661-1.7006-1.9537-2.6123-2.8679-1.7611-1.876-3.6661-3.5982-5.639-5.2239-1.008-.7804-1.9932-1.578-3.0433-2.2756-.5214-.3533-1.0228-.7317-1.5568-1.0594-.5323-.3297-1.0629-.6583-1.592-.986-1.64879-.9993-3.3435-1.8872-5.0681-2.6719-.8259,1.806-1.6141,3.6175-2.38369,5.4311,1.46309,.7062,2.90419,1.5011,4.30959,2.3885Z" style="fill:#263238;"></path><path d="M371.12929,320.6064c-.3881-.6167-.8059-1.2805-1.2525-1.9902-.4561-.7034-.9652-1.4356-1.4962-2.2176-1.078-1.5546-2.276-3.2824-3.587-5.1733-1.34159-1.8697-2.8551-3.8594-4.46459-6.0129-1.58981-2.1698-3.41931-4.3858-5.31631-6.7739-1.8809-2.4026-3.9908-4.8392-6.1815-7.4218-2.1644-2.607-4.5887-5.1977-7.0505-7.9586-1.22269-1.3884-2.5468-2.7321-3.8641-4.1321-1.3282-1.3895-2.6657-2.8209-4.0588-4.2455-1.411-1.4071-2.8461-2.8383-4.3041-4.2924-.7324-.724-1.4601-1.465-2.2134-2.1904-.7598-.7189-1.5251-1.4433-2.296-2.1731-1.5472-1.4542-3.0998-2.9493-4.7086-4.4264-1.6259-1.4587-3.2736-2.937-4.9419-4.434-1.65379-1.5148-3.4046-2.9596-5.1475-4.4545-1.75329-1.4825-3.5015-3.0135-5.3426-4.47-1.8266-1.4747-3.6724-2.965-5.5362-4.4697-1.9011-1.4577-3.8206-2.9295-5.7571-4.4143-7.7992-5.8696-16.09239-11.6604-24.8223-17.2277-8.7593-5.5276-17.5339-10.5648-26.1694-15.1207-2.1689-1.1196-4.3188-2.2292-6.448-3.3282-2.156-1.0452-4.2911-2.0804-6.404-3.1047-2.1025-1.0452-4.23269-1.9747-6.3213-2.9293-2.0955-.9399-4.1488-1.9084-6.2242-2.7591-2.0656-.8718-4.1053-1.7327-6.118-2.5821-2.0221-.8262-4.0365-1.5938-6.0115-2.3739-.9888-.3866-1.9703-.7704-2.9446-1.1513-.9774-.3725-1.9579-.7151-2.925-1.0692-1.937-.6996-3.8433-1.3881-5.7177-2.065-1.88239-.6532-3.74739-1.2535-5.5706-1.8631-1.8279-.5953-3.6077-1.2205-5.385-1.7351-.3651-.1082-.721-.217-1.0826-.3257l-.1034,.1494c-.4014,.6269-.8037,1.255-1.207,1.8845-.4814,.7505-.9663,1.5066-1.45,2.2608,.7515,.2591,1.5073,.5189,2.2743,.7763,1.7333,.5697,3.4688,1.2475,5.2516,1.8929,1.7778,.6597,3.597,1.3076,5.4332,2.0059,1.8284,.7187,3.68811,1.4498,5.5776,2.1926,.9436,.374,1.9004,.7359,2.854,1.1269,.95051,.3988,1.9084,.8005,2.8732,1.2053,1.9274,.8146,3.8936,1.614,5.8676,2.4693,1.9652,.8754,3.95671,1.7626,5.9734,2.661,2.0271,.8741,4.0325,1.8635,6.08,2.8213,2.0408,.9724,4.1231,1.9168,6.1785,2.9742,2.0663,1.0334,4.1546,2.0777,6.2631,3.1323,2.0839,1.1023,4.1878,2.2153,6.3106,3.3383,8.4549,4.5578,17.0607,9.5498,25.6755,14.9857,8.5855,5.4756,16.7658,11.1329,24.4898,16.8384,1.92,1.4417,3.8229,2.8705,5.70781,4.2857,1.852,1.458,3.68619,2.9019,5.50119,4.3307,1.832,1.4085,3.5733,2.8899,5.3222,4.3214,1.7387,1.444,3.4878,2.8364,5.1422,4.2976,1.6719,1.4415,3.3229,2.865,4.952,4.2697,1.6146,1.4212,3.1755,2.8592,4.7335,4.2555,.7771,.7004,1.5487,1.3956,2.3143,2.0856,.7602,.696,1.495,1.4073,2.2354,2.1014,1.4769,1.3929,2.9306,2.7637,4.3599,4.1114,1.414,1.3635,2.7751,2.7332,4.1295,4.0605,1.3435,1.3378,2.6962,2.6188,3.95,3.9441,2.52381,2.6345,5.0204,5.0976,7.2661,7.5759,2.2723,2.4541,4.4733,4.7616,6.4539,7.0347,1.9971,2.2588,3.9355,4.3455,5.6425,6.3863,1.73631,2.0186,3.35231,3.8974,4.8402,5.6272,1.4646,1.751,2.8029,3.3512,4.00711,4.7909,.60809,.7162,1.18229,1.3925,1.72149,2.0277,.5304,.6423,1.0264,1.243,1.487,1.8011,.3174,.3802,.8137,1.127,1.1009,1.4645,.3202-.5705,.7213-1.2935,1.03361-1.8689-.10061-.1632-.47391-.5622-.57971-.7323Z" style="fill:#263238;"></path><path d="M175.10959,179.8193c-.9218-.2672-1.8368-.5245-2.7421-.7603-3.2429-.8815-6.3206-1.7518-9.271-2.4297-2.9441-.6987-5.7052-1.4094-8.3237-1.9231-2.612-.5384-5.0364-1.0598-7.28079-1.4768-2.2502-.3803-4.3064-.7278-6.1566-1.0405-.9258-.1473-1.7978-.2958-2.6215-.4087-.8254-.1017-1.5974-.1967-2.3147-.285-.14-.0165-.268-.0305-.4038-.0461-.3917,.5354-.7823,1.0717-1.1667,1.613,.3845,.1047,.7825,.2119,1.2078,.324,.6953,.179,1.4438,.3717,2.2439,.5777,.7977,.2173,1.6471,.4485,2.5465,.6934,1.8004,.4759,3.8014,1.0048,5.9911,1.5837,2.1805,.6089,4.54889,1.2702,7.09339,1.9808,2.5521,.6747,5.2435,1.5391,8.1137,2.3833,2.8764,.8234,5.8768,1.8311,9.0388,2.8412,.4683,.144,.9433,.3021,1.4159,.4554,.7858-1.22,1.5691-2.4362,2.3488-3.6467,.0938-.1455,.1872-.2902,.281-.4356Z" style="fill:#263238;"></path><path d="M200.95879,156.6035c.5945,.2096,1.1917,.4166,1.798,.6149,1.4469,.4781,2.9269,.8874,4.4354,1.3448,1.51381,.424,3.0654,.8189,4.6439,1.2232,6.3316,1.5256,13.1928,2.6925,20.429,3.5021,7.2368,.793,14.8456,1.2631,22.6968,1.5264,7.8536,.2832,15.9535,.3648,24.1962,.5883,4.1216,.1079,8.1833,.2443,12.1718,.4548,3.9906,.1983,7.9087,.4659,11.7397,.8314,7.6683,.6945,14.9816,1.8203,21.8307,3.3463,6.8426,1.5727,13.1718,3.5821,18.8915,6.0044,5.7087,2.4393,10.7917,5.2413,15.1811,8.1669,4.388,2.9301,8.0965,5.9672,11.1186,8.883,.75651,.7276,1.4433,1.4715,2.1337,2.1644,.337,.3534,.69,.6824,.9976,1.0364,.3086,.3537,.6111,.7001,.90721,1.0393,.58729,.6828,1.18059,1.3159,1.70019,1.9547,.5094,.6482,.9942,1.2648,1.4532,1.8489,.7664,.912,1.3659,1.804,1.92961,2.5983-1.54971-3.9755-3.27911-7.8607-5.17281-11.6503-.4111-.5059-.8307-1.0177-1.2814-1.528-2.9254-3.3219-6.6255-6.7903-11.0893-10.1386-4.4648-3.3439-9.7047-6.5498-15.6404-9.3495-5.9408-2.7827-12.6-5.1154-19.7113-6.9213-7.1274-1.7642-14.7237-3.0615-22.6089-3.8652-3.9423-.4206-7.95689-.7282-12.0243-.9531-4.0685-.2373-8.1901-.387-12.35059-.496-8.32791-.2254-16.41291-.2609-24.18211-.4543-7.7717-.1733-15.2264-.5082-22.2837-1.116-7.0527-.6244-13.6991-1.5542-19.836-2.7935-2.88719-.6071-5.6737-1.2521-8.3141-1.9725-.2568,.276-.5105,.5488-.7682,.8258-1.0013,1.0768-1.9981,2.1736-2.9911,3.284Z" style="fill:#263238;"></path><path d="M196.49909,149.7203c-2.3636-1.0092-4.5029-2.1631-6.3457-3.4763-1.8305-1.3076-3.4431-2.7657-4.6316-4.2824-2.4351-3.0803-3.5843-6.4609-3.9549-9.2283-.0588-.43-.089-.8413-.1081-1.2434-.8206,.4475-1.6355,.9041-2.446,1.3674l-.0009,.0274c.01211,3.2473,.9215,7.3004,3.5347,11.2364,2.6313,3.9322,6.8875,7.3169,12.0039,9.8207,.15751,.0779,.3229,.1486,.4821,.225,1.1226-1.2479,2.2509-2.4744,3.385-3.6793-.6548-.2469-1.2962-.5015-1.9185-.7672Z" style="fill:#263238;"></path><path d="M181.36279,181.87l.1034-.1494c.389-.5619,.7775-1.123,1.1649-1.6827,5.7817-8.4782,11.96191-16.3005,18.3277-23.4344,.9908-1.1104,1.9854-2.2072,2.9845-3.284,.2572-.277,.5103-.5498,.7666-.8258,.66811-.72,1.3369-1.4405,1.999-2.1539,.93811-.9645,1.8654-1.9289,2.8073-2.8618,1.87081-1.8818,3.7575-3.6895,5.6537-5.4253,3.7872-3.4782,7.6313-6.6471,11.5158-9.4601,3.87431-2.8292,7.8182-5.2498,11.737-7.3163,.9756-.5263,1.9708-.9831,2.9398-1.4723,.9758-.4184,1.9242-.847,2.89351-1.236,.99039-.3549,1.96129-.7252,2.93819-1.0611,.9915-.309,1.97181-.6144,2.9406-.9163,3.9183-1.1179,7.7409-1.9469,11.38221-2.614,3.65109-.6091,7.11729-1.1074,10.37679-1.3874,.1533-.0145,.2998-.0245,.4523-.0383-5.37809-.9293-10.86009-1.555-16.43-1.8516-2.2705,.4051-4.59509,.88-6.9815,1.4715-1.0372,.2846-2.08659,.5727-3.1481,.8641-1.0576,.3237-2.12249,.6886-3.2024,1.0396-1.0735,.3904-2.158,.8375-3.2478,1.2708-1.0421,.4852-2.1144,.9417-3.1632,1.468-4.2145,2.0674-8.4488,4.5201-12.5843,7.3914-4.1477,2.8561-8.2303,6.0808-12.2251,9.6114-2.0002,1.7624-3.9842,3.5965-5.9432,5.5013-.9874,.9458-1.9556,1.9198-2.9354,2.8961-.9559,.9983-1.918,2.0032-2.88609,3.0143-.39541,.4135-.78741,.8409-1.18141,1.2597-1.1341,1.2049-2.2624,2.4314-3.385,3.6793-6.1234,6.8066-12.0632,14.2367-17.6335,22.2809-.4382,.6241-.8773,1.2497-1.3174,1.8766-.3234,.4972-.64769,.9961-.9721,1.495l-.2833,.4356c-.78629,1.2105-1.5761,2.4267-2.3684,3.6467-.0524,.0805-.104,.1602-.1564,.2408-.8679,1.2869-1.6223,2.6523-2.43749,3.9869-.80161,1.3431-1.60641,2.6914-2.41391,4.0447-.7582,1.3819-1.519,2.7689-2.2825,4.1607-.38059,.6967-.7619,1.3945-1.1437,2.0936-.3876,.6959-.7636,1.3996-1.1104,2.1201-.7123,1.4314-1.427,2.8674-2.1439,4.308-.3574,.7208-.7152,1.4428-1.07359,2.1658-.33151,.736-.66341,1.4732-.99581,2.2115-.0764,.1669-.147,.3349-.2231,.5019-.8075,1.7755-1.5813,3.5565-2.3344,5.3404-4.1719,9.8827-7.5183,19.874-10.0003,29.7731-2.9953,11.8489-4.6797,23.5823-5.3174,34.7911-.6373,11.2127-.2342,21.9065,.9023,31.8133,1.169,9.9077,3.0847,19.0168,5.3345,27.1756,1.8526,6.9366,4.1325,13.1265,6.3588,18.6218,1.94741,1.7991,3.9406,3.5493,5.9881,5.2367-.4746-1.1901-.9528-2.4111-1.43469-3.6826-2.21361-6.1858-4.63021-13.2735-6.47881-21.3247-1.9125-8.0256-3.518-16.9344-4.4261-26.583-.8754-9.6481-1.0667-20.0238-.2884-30.873,.7788-10.8446,2.5293-22.1627,5.5132-33.6185,2.4844-9.6136,5.7847-19.3243,9.86811-28.947,.76959-1.8136,1.55779-3.6251,2.38369-5.4311,.014-.0305,.0267-.0611,.0407-.0916,.322-.7162,.6434-1.4313,.9644-2.1452,.3475-.7016,.6946-1.4022,1.041-2.1016,.6935-1.3987,1.3849-2.7929,2.0741-4.1826,.3347-.6999,.6985-1.3835,1.0736-2.0597,.3693-.6793,.7377-1.3575,1.1056-2.0345,.7366-1.3535,1.4707-2.7024,2.2022-4.0463,.7793-1.317,1.55571-2.6293,2.3292-3.9365,.7861-1.2995,1.5103-2.6302,2.3479-3.8843,.32861-.5121,.6541-1.0197,.9814-1.5301,.4837-.7542,.9686-1.5103,1.45-2.2608,.4033-.6295,.8056-1.2576,1.207-1.8845Z" style="fill:#263238;"></path></g><path d="M296.47659,386.2032s-.17459-.0836-.50759-.2612c-.33961-.1832-.83161-.4486-1.47461-.7954-.6498-.3469-1.4479-.7869-2.3775-1.331-.9351-.5345-2.01289-1.1534-3.1995-1.8949-4.7757-2.8957-11.5135-7.5087-18.6729-14.5249-3.5847-3.4946-7.2762-7.5578-11.0336-12.0854-.9292-1.1404-1.8743-2.3003-2.8344-3.4788-.9398-1.1947-1.8944-2.4083-2.863-3.64-.9258-1.2657-1.8904-2.5327-2.8219-3.8489-.9009-1.337-1.8397-2.6755-2.7433-4.0612-7.2065-11.1069-14.0681-23.9572-20.8651-37.6194-1.6916-3.423-3.337-6.815-4.9125-10.1864-1.51969-3.392-3.017-6.7343-4.4884-10.0184-2.9409-6.5688-5.7777-12.905-8.48029-18.9411-2.72651-6.0256-5.17151-11.8158-7.83381-17.0562-2.6517-5.2433-5.4074-9.984-8.2195-14.1125-2.8185-4.1209-5.6468-7.6677-8.4321-10.4951-.3304-.3705-.6803-.7094-1.0301-1.0362-.346-.3305-.6859-.6549-1.0193-.9732-.3333-.3184-.66019-.6306-.9807-.9366-.3297-.2955-.6692-.5664-.9926-.8417-.6508-.546-1.2737-1.0685-1.8677-1.5668-.6268-.4554-1.22319-.8887-1.7883-1.2991-1.107-.8552-2.188-1.4681-3.1006-2.0368-.4605-.2774-.8748-.5527-1.2726-.7707-.4038-.2056-.7703-.3922-1.09869-.5595-.64951-.3334-1.14641-.5885-1.48941-.7645-.3349-.174-.5031-.2708-.5031-.2708,0,0,.1773,.0765,.5171,.2407,.3466,.1697,.8488,.4154,1.5053,.7366,.33111,.1634,.7007,.3457,1.1078,.5466,.401,.2139,.8188,.4853,1.2828,.7589,.9197,.5611,2.0087,1.1673,3.1243,2.0166,.5693,.408,1.1701,.8386,1.8017,1.2912,.59851,.4962,1.2259,1.0164,1.8816,1.5601,.3257,.2744,.6678,.5445,.99991,.8391,.323,.3052,.65229,.6166,.98809,.9342s.6782,.6414,1.0268,.9712c.3523,.3262,.7047,.6646,1.0377,1.0346,2.8055,2.8235,5.6539,6.3697,8.4912,10.4921,2.8308,4.1299,5.6035,8.8737,8.2701,14.1204,2.6775,5.2447,5.134,11.0368,7.8668,17.0562,2.7079,6.0331,5.5501,12.3661,8.4968,18.9316,1.4727,3.2832,2.9713,6.6245,4.4924,10.0154,1.5726,3.3625,3.2195,6.7566,4.9096,10.1764,6.7931,13.6546,13.6437,26.5026,20.8247,37.6001,.9003,1.3844,1.8352,2.721,2.7325,4.0567,.92731,1.3141,1.8868,2.5784,2.8079,3.8423,.9657,1.232,1.9175,2.4461,2.8542,3.6413,.957,1.179,1.8989,2.3394,2.8248,3.4803,3.7441,4.5297,7.4197,8.5948,10.987,12.0931,7.1245,7.0228,13.8276,11.6549,18.579,14.5812,1.18041,.749,2.2523,1.3759,3.1816,1.9189,.92381,.5525,1.7165,1.0013,2.36081,1.3572,.63609,.3591,1.12289,.6338,1.45879,.8234,.3278,.1872,.4918,.2903,.4918,.2903Z" style="fill:#fff;"></path><path d="M301.18839,240.2084c-.0035,.0043-.0719-.0421-.2017-.137-.1413-.1058-.3303-.2473-.5713-.4276-.5119-.3925-1.2426-.9525-2.1765-1.6683-.93989-.7312-2.09389-1.6201-3.4541-2.6254-1.3572-1.0091-2.8847-2.1822-4.6187-3.4173-1.7215-1.252-3.6095-2.6199-5.6706-4.0402-2.0407-1.4497-4.2679-2.9302-6.6008-4.504-4.6955-3.1024-9.923-6.4152-15.5112-9.7249-5.6009-3.2928-11.0294-6.2678-16.0161-8.8786-2.5058-1.2813-4.8789-2.5154-7.1345-3.6008-2.24-1.1176-4.3503-2.109-6.2786-3.0107-1.9195-.9207-3.6847-1.6905-5.2242-2.3907-1.5375-.7046-2.8735-1.2849-3.9677-1.7541-1.0781-.4714-1.92139-.8401-2.5125-1.0986-.274-.1236-.4893-.2207-.6502-.2932-.1459-.0678-.2195-.105-.2174-.1102s.08,.0219,.23,.0796c.164,.0652,.3833,.1524,.6628,.2636,.5967,.2453,1.4483,.5954,2.5368,1.0429,1.1022,.4515,2.4462,1.0152,3.9916,1.7044,1.5472,.6848,3.32,1.4405,5.247,2.3485,1.9358,.8891,4.0534,1.8692,6.3002,2.9772,2.2626,1.0759,4.6422,2.302,7.1541,3.5772,4.9987,2.5986,10.4369,5.5686,16.04321,8.8646,5.59369,3.3129,10.82149,6.6367,15.51219,9.7555,2.3303,1.582,4.5539,3.0721,6.5895,4.5324,2.056,1.431,3.9378,2.8107,5.6519,4.0754,1.7265,1.2478,3.2451,2.4344,4.5927,3.4578,1.3506,1.0196,2.4938,1.9235,3.4221,2.6702,.9182,.7366,1.6363,1.3128,2.1397,1.7166,.2325,.1909,.41491,.3408,.5513,.4528,.1231,.1034,.1844,.1585,.181,.1629Z" style="fill:#fff;"></path><path d="M308.54759,157.8361c-.0008,.0055-.0885-.0002-.2589-.0168-.1852-.0199-.4354-.0469-.755-.0813-.6795-.0807-1.65269-.1961-2.8978-.3439-2.511-.3402-6.1635-.6731-10.6783-1.0285-4.5193-.3043-9.9061-.5996-15.8957-.6957-5.9885-.1329-12.57489-.1353-19.4901-.1671-6.9174-.037-13.5093-.1543-19.4985-.4585-1.4956-.1001-2.95429-.1977-4.3717-.2926-.7082-.0518-1.4072-.0881-2.0933-.1509-.6856-.0688-1.36029-.1366-2.0238-.2031-1.3261-.135-2.6071-.2653-3.8388-.3906-1.2256-.1711-2.4021-.3354-3.5256-.4923-2.2518-.2761-4.2634-.6857-6.0347-1.0123-.8838-.1673-1.7071-.3232-2.4662-.4669-.7489-.1792-1.4343-.3432-2.0525-.4911-1.2188-.2965-2.1713-.5281-2.8366-.6899l-.7354-.1873c-.1652-.044-.2492-.0691-.2478-.0745s.08811,.009,.256,.0424l.743,.1561c.668,.1478,1.6246,.3594,2.8485,.6302,.6194,.1394,1.3058,.294,2.0561,.4629,.7597,.1355,1.5836,.2824,2.4681,.4402,1.7722,.3092,3.7831,.7024,6.0336,.9635,1.1224,.15,2.2979,.3071,3.5225,.4708,1.2305,.1192,2.5102,.2431,3.8352,.3714,.6625,.0638,1.3364,.1286,2.0212,.1945,.6853,.06,1.3837,.0936,2.0911,.1429,1.41581,.0904,2.87281,.1833,4.3667,.2786,5.9827,.2875,12.569,.3956,19.4848,.4327,6.9131,.0317,13.5028,.0432,19.4949,.1926,5.9931,.1125,11.385,.4318,15.9061,.7657,4.5172,.3849,8.1694,.7529,10.677,1.1317,1.2422,.1738,2.2132,.3095,2.89131,.4044,.31769,.0479,.56639,.0854,.75039,.1132,.1689,.0273,.2549,.044,.2542,.0495Z" style="fill:#fff;"></path><path d="M170.83469,175.3392c-.0029,.0108-.1074-.005-.30369-.0448-.232-.0515-.51391-.114-.85441-.1895-.7884-.1859-1.8462-.4353-3.1309-.7382-2.64269-.6261-6.2969-1.4741-10.3472-2.3453-4.0521-.8701-7.7324-1.5983-10.399-2.1132-1.2958-.2517-2.3625-.4588-3.1576-.6133l-.8567-.1782c-.1952-.0443-.297-.0729-.2951-.0839,.0019-.011,.1072-.004,.306,.0195,.2355,.0322,.5217,.0713,.8672,.1184,.7523,.1087,1.838,.2831,3.1774,.5122,2.6788,.4576,6.3699,1.151,10.4258,2.0218,4.0543,.8721,7.7039,1.7563,10.3342,2.4397,1.3154,.3414,2.3769,.6284,3.1075,.8384,.3344,.099,.6113,.181,.8394,.2484,.191,.0603,.2898,.0971,.2871,.108Z" style="fill:#fff;"></path><path d="M153.77919,205.4513c-.001,.0111-.1021,.0148-.2937,.0117-.2291-.008-.5048-.0176-.8363-.0292-.36219-.0213-.8057-.0379-1.3211-.0369-.5153-.0043-1.1013-.0244-1.7495,.0029-1.2961,.0119-2.8367,.1212-4.5385,.309-1.6986,.2143-3.5569,.5262-5.4766,.9947-1.9168,.4822-3.7063,1.0724-5.3036,1.6877-.7877,.3345-1.5481,.6261-2.2292,.9672-.343,.163-.675,.3208-.9952,.473-.3108,.1654-.6102,.3247-.8971,.4774-.5789,.2921-1.0754,.6037-1.519,.8651-.4477,.2553-.8213,.494-1.1209,.6985-.2789,.1791-.5109,.328-.7037,.4518-.1632,.1005-.2521,.149-.2587,.14s.0694-.0751,.2205-.1929c.1837-.1378,.4049-.3036,.6709-.503,.2898-.2214,.6551-.4766,1.0961-.748,.4368-.2776,.9284-.6049,1.5038-.9118,.2859-.1597,.5841-.3263,.8936-.4993,.3199-.1587,.6513-.3232,.994-.4932,.6812-.3541,1.4434-.6573,2.2342-1.0019,1.6035-.6354,3.4051-1.2391,5.3365-1.725,1.9344-.4721,3.8085-.7775,5.5205-.9768,1.7152-.1729,3.2671-.2588,4.5705-.2414,.6516-.0127,1.2405,.0235,1.7573,.0451,.51709,.0163,.96129,.0513,1.32339,.092,.3304,.0357,.6053,.0653,.8335,.09,.1903,.0241,.2894,.0422,.2883,.0533Z" style="fill:#fff;"></path><path d="M199.14369,146.9671c-.0068,.0213-.3053-.0635-.8414-.2359-.2698-.082-.596-.1929-.9627-.3535-.368-.1565-.7975-.3142-1.2423-.552-.4532-.2215-.9468-.47-1.4511-.7835-.52-.2874-1.0365-.6559-1.5881-1.0318-1.07609-.7889-2.1973-1.7443-3.2537-2.8677-1.044-1.1357-1.9157-2.3235-2.62439-3.4542-.33491-.5775-.66491-1.1195-.91381-1.6591-.276-.5258-.4879-1.0362-.6759-1.5042-.2049-.461-.3309-.9008-.46029-1.2792-.13361-.3773-.22041-.7108-.28251-.9857-.133-.5471-.1959-.8509-.1742-.8562,.0662-.0181,.3409,1.1986,1.1284,3.0329,.19931,.4574,.4207,.9563,.7038,1.4703,.2558,.5279,.5907,1.0578,.9278,1.6233,.7132,1.107,1.5791,2.2719,2.6083,3.3915,1.0416,1.1075,2.1403,2.0555,3.1923,2.8472,.5396,.3772,1.0436,.7497,1.5515,1.0432,.4919,.3197,.9735,.5767,1.4151,.8088,1.7724,.9187,2.966,1.2812,2.9432,1.3458Z" style="fill:#fff;"></path><g><path d="M372.63179,189.8056c2.2649,7.2156,3.9574,14.684,5.0335,22.3501-1.12829-1.3661-3.1445-1.5873-4.5379-.4804-1.4101,1.1201-1.6451,3.1712-.525,4.5812s3.1712,1.645,4.5812,.5249c.4167-.331,.7175-.7483,.9243-1.2014,.405,3.5134,.6794,7.0665,.81911,10.6543-.07161-.1183-.13671-.2392-.22491-.3503-1.12009-1.41-3.1712-1.6449-4.5812-.5249-1.4101,1.1201-1.645,3.1712-.525,4.5812,1.12011,1.4101,3.1712,1.645,4.5812,.5249,.3536-.2809,.633-.6205,.8361-.9937,.0121,.7633,.0219,1.5273,.0219,2.2936,0,.6982-.01609,1.3926-.0265,2.0884-.0101,.008-.0211,.0144-.0312,.0224-1.8668,1.4829-2.1779,4.1982-.6951,6.0648,.14671,.1846,.3084,.3495,.477,.5034-.2005,3.2775-.5092,6.5255-.9315,9.7382-.5812,.1445-1.142,.4087-1.6415,.8055-1.8665,1.4829-2.1777,4.1981-.6948,6.0648,.3101,.3904,.6763,.7085,1.0751,.9606-.6099,3.2137-1.32659,6.389-2.1522,9.5207-.8282,.0644-1.6468,.3681-2.3461,.9237-1.8667,1.4829-2.1777,4.1982-.6949,6.0648,.2261,.2845,.4832,.5283,.7593,.7397-1.6916,5.1772-3.6755,10.2213-5.9349,15.113-1.1317-.1598-2.3236,.1232-3.289,.8902-1.8667,1.4829-2.17779,4.1982-.6949,6.0648,.1055,.1329,.2187,.2557,.33611,.3727-1.917,3.5818-3.98611,7.0692-6.197,10.4561-.54451-.309-1.16211-.5081-1.82831-.5542-2.3782-.1644-4.4395,1.6303-4.6039,4.0085-.0986,1.4263,.5105,2.7349,1.5244,3.5924-1.4115,1.8975-2.867,3.7602-4.3705,5.5821-.1312-.0213-.26369-.0386-.3988-.0479-2.3783-.1645-4.4396,1.6302-4.604,4.0085-.0378,.5463,.032,1.0742,.1843,1.5678-2.214,2.4146-4.5101,4.7525-6.887,7.0066-.6958-1.1941-1.9513-2.034-3.4338-2.1365-2.3783-.1645-4.4395,1.6302-4.604,4.0085-.105,1.5193,.5917,2.9066,1.7272,3.7553-2.2954,1.9286-4.65259,3.7851-7.0701,5.5655-.6238-1.4251-1.9967-2.4646-3.6561-2.5793-2.3783-.1645-4.4396,1.6302-4.604,4.0085-.0909,1.3156,.4195,2.5325,1.29461,3.3867-2.63531,1.7057-5.33361,3.3218-8.08711,4.8511-.6968-1.1891-1.9492-2.0251-3.4278-2.1273-2.3783-.1644-4.4395,1.6302-4.604,4.0085-.051,.7375,.0872,1.444,.3718,2.0734-2.5981,1.2396-5.2416,2.3984-7.9252,3.4794-.7161-.7439-1.6964-1.2382-2.8076-1.315-2.3783-.1645-4.4396,1.6302-4.604,4.0085-.0014,.0199,0,.0393-.001,.0591-2.037,.6887-4.0963,1.3282-6.174,1.9245,.0563-.1933,.0958-.394,.1102-.603,.1089-1.5739-1.0788-2.9379-2.6526-3.0467s-2.9379,1.0788-3.0466,2.6526c-.0609,.8809,.2936,1.6869,.8854,2.253-2.5038,.6243-5.0347,1.1794-7.5897,1.6669-.4814-.58-1.1855-.9731-1.9967-1.0292-1.30009-.0899-2.445,.7109-2.8696,1.8771-1.6668,.2572-3.3458,.4771-5.03149,.675,.87589-.9049,1.151-2.2869,.57309-3.488-.7409-1.5404-2.5904-2.1884-4.1307-1.4474-1.54039,.7409-2.18839,2.5904-1.4475,4.1307,.2463,.5118,.6216,.9139,1.0605,1.2104-4.1315,.3669-8.3116,.5653-12.5385,.5653-11.4705,0-22.6165-1.3849-33.2848-3.9883-.0293-.4371-.1382-.8759-.3396-1.2948-.8458-1.7584-2.9569-2.4981-4.7153-1.6522-.5857,.2817-1.0551,.7056-1.3939,1.2083-3.93029-1.162-7.7881-2.492-11.5659-3.9816,.8993-1.0326,1.1521-2.5408,.5208-3.8531-.846-1.7583-2.957-2.498-4.7153-1.6522-1.1708,.5632-1.8862,1.6878-1.9864,2.8952-3.64749-1.6457-7.21149-3.4433-10.6844-5.3845,.7381-1.0173,.90891-2.3969,.32591-3.609-.84591-1.7583-2.957-2.4981-4.71521-1.6522-.7602,.3656-1.3289,.9683-1.6625,1.6761-4.0375-2.5311-7.9361-5.2627-11.6829-8.1807-.0336-.3544-.11839-.7091-.2818-1.0487-.5895-1.2254-1.8801-1.872-3.1589-1.7179-4.8386-4.0185-9.4016-8.3569-13.6574-12.9826-.0109-.4241-.1039-.8523-.2997-1.2594-.4676-.9723-1.3773-1.5864-2.3718-1.7227-1.2974-1.4933-2.5603-3.0172-3.7944-4.565,.0527-.021,.107-.0327,.1591-.0577,1.2197-.5867,1.733-2.0512,1.1461-3.2711-.5866-1.2197-2.0511-1.7329-3.271-1.1461-.3724,.1791-.6692,.4461-.8988,.7569-4.4207-5.9406-8.3852-12.2407-11.8334-18.8536,17.0884,54.4397,66.5449,94.544,125.8179,97.7691,.3486,.0581,.7041,.0773,1.06171,.0546,2.20819,.1035,4.42829,.1618,6.662,.1618,77.28979,0,139.94549-62.6556,139.94549-139.9452,0-23.3073-5.7052-45.2793-15.7837-64.6081Z" style="opacity:.3;"></path><path d="M319.94469,338.5123c1.7967,.1242,3.3536-1.2315,3.4778-3.028,.1242-1.7964-1.2314-3.3534-3.0279-3.4777-1.7965-.1242-3.35359,1.2315-3.4778,3.028-.1242,1.7965,1.2316,3.3535,3.0279,3.4777Z" style="opacity:.3;"></path><path d="M305.47369,348.4929c1.7965,.1242,3.3536-1.2314,3.4778-3.0279s-1.2314-3.3535-3.0279-3.4777-3.35359,1.2314-3.4778,3.0279c-.1242,1.7965,1.2316,3.3535,3.0279,3.4777Z" style="opacity:.3;"></path><path d="M292.33729,358.5583c1.7963,.1242,3.3534-1.2315,3.4776-3.028s-1.2314-3.3535-3.02789-3.4777c-1.79651-.1241-3.35351,1.2315-3.47771,3.028-.1242,1.7964,1.2315,3.3535,3.028,3.4777Z" style="opacity:.3;"></path><path d="M330.61749,324.6508c-.1242,1.7965,1.2314,3.3535,3.0279,3.4777s3.3534-1.2314,3.47761-3.0279c.12419-1.7965-1.23141-3.3535-3.02791-3.4777-1.7964-.1242-3.3535,1.2315-3.4776,3.0279Z" style="opacity:.3;"></path><path d="M330.44259,317.1382c1.5737,.1088,2.9378-1.0788,3.0466-2.6526,.10881-1.5739-1.0787-2.9379-2.6527-3.0467-1.5737-.1088-2.9377,1.0788-3.0466,2.6526-.1088,1.5739,1.0789,2.9379,2.6527,3.0467Z" style="opacity:.3;"></path><path d="M349.03429,299.9703c-1.5738-.1088-2.9378,1.0788-3.0466,2.6526-.1089,1.5738,1.0788,2.9378,2.6526,3.0466s2.9379-1.0788,3.0466-2.6526c.1088-1.5738-1.0788-2.9378-2.6526-3.0466Z" style="opacity:.3;"></path><path d="M323.91889,322.4438c-1.5737-.1087-2.9378,1.0789-3.0465,2.6527-.1089,1.5738,1.0788,2.9378,2.65261,3.0466,1.57379,.1088,2.93769-1.0788,3.04659-2.6526,.1088-1.5738-1.0789-2.9379-2.6527-3.0467Z" style="opacity:.3;"></path><path d="M309.10679,337.3579c1.5738,.1088,2.9379-1.0788,3.0468-2.6526,.1087-1.5739-1.0789-2.9379-2.6527-3.0467-1.57389-.1088-2.9378,1.0788-3.0467,2.6526-.1087,1.5739,1.07881,2.9379,2.6526,3.0467Z" style="opacity:.3;"></path><path d="M295.16069,346.6603c1.5738,.1088,2.9379-1.0788,3.0466-2.6527,.1088-1.5738-1.0789-2.9378-2.6526-3.0466-1.5738-.1088-2.9378,1.0788-3.0466,2.6526-.1089,1.5738,1.0788,2.9379,2.6526,3.0467Z" style="opacity:.3;"></path><path d="M299.90509,336.1258c1.2463,.0862,2.3263-.8543,2.4126-2.1006,.0861-1.2462-.8545-2.3263-2.1006-2.4125-1.2463-.0862-2.3265,.8543-2.4126,2.1006-.0861,1.2462,.8543,2.3263,2.1006,2.4125Z" style="opacity:.3;"></path><path d="M285.31039,344.9834c1.2461,.0861,2.3263-.8543,2.4124-2.1006,.08621-1.2462-.8541-2.3264-2.1004-2.4126-1.2463-.0861-2.32639,.8543-2.4126,2.1006-.0863,1.2463,.8543,2.3264,2.1006,2.4126Z" style="opacity:.3;"></path><path d="M314.00049,326.8887c1.2463,.0862,2.3263-.8543,2.4126-2.1005,.0862-1.2463-.8543-2.3264-2.1006-2.4126-1.2462-.0861-2.3264,.8543-2.41249,2.1005-.08621,1.2463,.85429,2.3264,2.10049,2.4126Z" style="opacity:.3;"></path><path d="M319.73339,317.0735c1.2461,.0862,2.3263-.8543,2.4124-2.1006,.0863-1.2462-.8541-2.3264-2.1004-2.4125-1.2463-.0862-2.32639,.8543-2.4126,2.1005-.0862,1.2463,.8543,2.3264,2.1006,2.4126Z" style="opacity:.3;"></path><path d="M334.00079,304.6706c-.0861,1.2463,.8543,2.3264,2.1006,2.4126,1.2463,.0861,2.3263-.8543,2.41261-2.1006,.08609-1.2462-.85451-2.3264-2.10061-2.4125-1.2463-.0862-2.32639,.8543-2.4126,2.1005Z" style="opacity:.3;"></path><path d="M324.77129,305.1853c-.0609,.8806,.6036,1.6438,1.4842,1.7047,.88051,.0609,1.6437-.6036,1.7046-1.4842,.06091-.8806-.6036-1.6438-1.4842-1.7047-.8805-.0609-1.6437,.6036-1.7046,1.4842Z" style="opacity:.3;"></path><path d="M341.74939,298.0311c1.2463,.0862,2.3264-.8543,2.41261-2.1005,.08609-1.2463-.85431-2.3264-2.10061-2.4126-1.2463-.0861-2.3263,.8543-2.4126,2.1005-.086,1.2463,.8543,2.3264,2.1006,2.4126Z" style="opacity:.3;"></path><path d="M331.90349,297.8379c.8806,.0609,1.6438-.6036,1.7047-1.4842s-.6037-1.6438-1.48419-1.7046c-.88061-.0609-1.64381,.6036-1.70471,1.4842s.60371,1.6438,1.4842,1.7046Z" style="opacity:.3;"></path><path d="M305.34259,326.2901c.8805,.0609,1.6437-.6036,1.7046-1.4842,.0607-.8806-.6036-1.6438-1.48419-1.7046-.88061-.0609-1.64391,.6036-1.70461,1.4842-.0611,.8806,.6034,1.6438,1.4842,1.7046Z" style="opacity:.3;"></path><path d="M291.50979,334.8801c.8806,.0609,1.6438-.6036,1.7047-1.4842s-.6037-1.6438-1.4842-1.7047c-.8806-.0609-1.6438,.6037-1.7047,1.4842-.0609,.8806,.6037,1.6438,1.4842,1.7047Z" style="opacity:.3;"></path><path d="M277.44939,344.167c.8805,.0609,1.6439-.6037,1.70461-1.4842,.061-.8806-.60351-1.6438-1.48421-1.7047-.8806-.0609-1.64379,.6036-1.7046,1.4842-.0609,.8806,.6036,1.6438,1.4842,1.7047Z" style="opacity:.3;"></path><path d="M265.03859,351.2889c.8807,.0609,1.6439-.6036,1.7048-1.4842s-.6037-1.6438-1.4842-1.7046c-.8807-.0609-1.6438,.6036-1.7048,1.4842-.0607,.8806,.60361,1.6438,1.4842,1.7046Z" style="opacity:.3;"></path><path d="M257.75709,356.4084c.8807,.0608,1.6438-.6036,1.7048-1.4842,.0607-.8806-.6036-1.6439-1.4842-1.7047-.88069-.0609-1.6439,.6036-1.7048,1.4842-.06089,.8806,.6036,1.6438,1.4842,1.7047Z" style="opacity:.3;"></path><path d="M295.45839,326.2338c.61261,.0424,1.1435-.4199,1.1859-1.0325,.0423-.6127-.42-1.1436-1.0326-1.186-.6126-.0423-1.1435,.42-1.186,1.0326-.0422,.6126,.4199,1.1436,1.0327,1.1859Z" style="opacity:.3;"></path><path d="M284.95939,333.9397c.6124,.0424,1.1435-.4199,1.1858-1.0325,.0424-.6126-.4199-1.1436-1.0325-1.186-.6128-.0423-1.14369,.42-1.186,1.0326-.0424,.6126,.4199,1.1436,1.0327,1.1859Z" style="opacity:.3;"></path><path d="M281.81759,356.886c1.5737,.1087,2.9377-1.0789,3.0466-2.6527,.10881-1.5738-1.0789-2.9378-2.6527-3.0466-1.5737-.1088-2.9379,1.0788-3.0466,2.6526-.1088,1.5738,1.0789,2.9378,2.6527,3.0467Z" style="opacity:.3;"></path><path d="M271.44669,352.282c-.0863,1.2462,.85431,2.3264,2.1006,2.4125,1.2461,.0862,2.3263-.8542,2.4124-2.1005,.0862-1.2463-.8543-2.3264-2.1006-2.4125-1.2462-.0862-2.3264,.8542-2.4124,2.1005Z" style="opacity:.3;"></path><path d="M272.09139,341.7498c.61261,.0423,1.1437-.4199,1.1859-1.0326,.0425-.6126-.4199-1.1435-1.0325-1.1859s-1.1435,.4199-1.1859,1.0325c-.0423,.6127,.4199,1.1436,1.0325,1.186Z" style="opacity:.3;"></path><path d="M258.26279,348.4704c.6126,.0424,1.1435-.4199,1.1859-1.0325,.04231-.6126-.42-1.1436-1.0325-1.186-.6126-.0423-1.1436,.42-1.1859,1.0326-.0424,.6126,.4199,1.1436,1.0325,1.1859Z" style="opacity:.3;"></path><path d="M263.877,360.135c-.08611,1.2463,.85429,2.3264,2.10059,2.4126,1.2463,.0861,2.32641-.8543,2.4126-2.1006,.0861-1.2462-.8545-2.3264-2.1006-2.4125-1.2463-.0862-2.3265,.8542-2.41259,2.1005Z" style="opacity:.3;"></path><path d="M315.31509,307.8752c.6126,.0423,1.1435-.42,1.18591-1.0326,.04229-.6126-.42-1.1435-1.03261-1.1859-.6126-.0424-1.1435,.4199-1.186,1.0326-.0422,.6126,.4199,1.1435,1.0327,1.1859Z" style="opacity:.3;"></path><path d="M324.69069,296.8838c.6126,.0423,1.1435-.42,1.186-1.0326,.0422-.6126-.42-1.1435-1.03269-1.1859-.61261-.0423-1.14351,.4199-1.18591,1.0326-.0423,.6126,.42,1.1435,1.0326,1.1859Z" style="opacity:.3;"></path><path d="M335.02789,290.0778c.6126,.0423,1.1435-.4199,1.186-1.0326,.0422-.6126-.42-1.1435-1.0327-1.1859-.6126-.0424-1.1435,.4199-1.1859,1.0325-.04229,.6127,.42,1.1436,1.0326,1.186Z" style="opacity:.3;"></path><path d="M310.17249,316.3742c.61251,.0424,1.14351-.4199,1.1858-1.0325,.0424-.6126-.4199-1.1436-1.0325-1.1859-.6126-.0424-1.1437,.4199-1.1859,1.0325-.0423,.6126,.42,1.1436,1.0326,1.1859Z" style="opacity:.3;"></path><circle cx="342.36704" cy="314.1036" r="3.26051" transform="translate(-60.40232 82.47221) rotate(-12.63166)" style="opacity:.3;"></circle><path d="M228.983,369.3684c1.54039-.741,2.18849-2.5904,1.44749-4.1308s-2.59049-2.1884-4.1309-1.4474c-1.5404,.741-2.1884,2.5904-1.4473,4.1308,.741,1.5403,2.5904,2.1884,4.13071,1.4474Z" style="opacity:.3;"></path><path d="M210.78149,367.3045c.7409,1.5404,2.5904,2.1884,4.1307,1.4474,1.5404-.741,2.1884-2.5904,1.4475-4.1308-.741-1.5404-2.5905-2.1884-4.1309-1.4474s-2.1883,2.5904-1.4473,4.1308Z" style="opacity:.3;"></path><path d="M194.37679,358.6653c.7408,1.5404,2.5903,2.1885,4.1307,1.4475s2.1884-2.5905,1.44751-4.1308c-.74111-1.5404-2.59041-2.1885-4.13081-1.4475s-2.1885,2.5905-1.4474,4.1308Z" style="opacity:.3;"></path><path d="M178.14239,350.5175c.741,1.5404,2.5903,2.1885,4.1307,1.4475,1.5405-.741,2.1885-2.5904,1.4475-4.1308-.7411-1.5404-2.5904-2.1884-4.1308-1.4474s-2.1885,2.5904-1.4474,4.1307Z" style="opacity:.3;"></path><path d="M190.60549,349.3396c.5867,1.2198,2.0511,1.7329,3.271,1.1461,1.2197-.5867,1.7329-2.0512,1.1461-3.271-.58659-1.2198-2.0513-1.733-3.271-1.1462-1.2199,.5868-1.733,2.0513-1.1461,3.2711Z" style="opacity:.3;"></path><path d="M174.44229,340.3426c.587,1.2198,2.0514,1.733,3.2712,1.1462,1.2197-.5867,1.7329-2.0512,1.1462-3.271-.5868-1.2198-2.0514-1.733-3.2711-1.1462-1.2198,.5868-1.7329,2.0513-1.1463,3.271Z" style="opacity:.3;"></path><path d="M210.12939,358.8091c1.2198-.5867,1.7329-2.0512,1.1461-3.271s-2.0512-1.7329-3.271-1.1462c-1.2199,.5868-1.733,2.0513-1.1462,3.2711s2.0512,1.7329,3.2711,1.1461Z" style="opacity:.3;"></path><path d="M222.44489,358.9475c1.2197-.5868,1.7328-2.0513,1.146-3.2711-.5867-1.2197-2.0512-1.7329-3.27089-1.1461-1.21981,.5867-1.73291,2.0512-1.14631,3.271,.5868,1.2198,2.0514,1.733,3.2712,1.1462Z" style="opacity:.3;"></path><path d="M240.62479,369.0073c1.2199-.5868,1.7331-2.0513,1.1463-3.2711s-2.0513-1.7329-3.271-1.1462c-1.2199,.5868-1.733,2.0513-1.1463,3.2711,.5868,1.2198,2.0513,1.733,3.271,1.1462Z" style="opacity:.3;"></path><path d="M234.57039,359.2955c.8618-.4146,1.2244-1.4494,.8098-2.3113-.4147-.8619-1.4495-1.2245-2.31119-.8099-.862,.4147-1.22461,1.4494-.81,2.3113,.41469,.8619,1.44949,1.2245,2.31139,.8099Z" style="opacity:.3;"></path><path d="M205.09319,349.9987c.8617-.4146,1.2244-1.4494,.80981-2.3113-.41461-.8619-1.44941-1.2245-2.31131-.8098-.8619,.4145-1.2244,1.4494-.8098,2.3112,.4146,.8619,1.4493,1.2245,2.3113,.8099Z" style="opacity:.3;"></path><path d="M189.59039,341.576c.8619-.4146,1.22461-1.4494,.81-2.3113-.4146-.8619-1.44939-1.2245-2.3113-.8099-.8619,.4146-1.2245,1.4494-.8098,2.3113,.4146,.8619,1.4494,1.2245,2.3111,.8099Z" style="opacity:.3;"></path><path d="M199.14559,340.4141c.5996-.2885,.8519-1.0083,.56341-1.608-.28841-.5995-1.00841-.8518-1.60791-.5634-.5996,.2884-.8519,1.0083-.5634,1.608,.2884,.5996,1.0084,.8518,1.6079,.5634Z" style="opacity:.3;"></path><path d="M186.26209,334.6569c.5997-.2885,.8518-1.0084,.5634-1.608-.28849-.5996-1.0083-.8518-1.608-.5634-.59949,.2884-.8518,1.0083-.5634,1.608,.2885,.5995,1.0084,.8518,1.608,.5634Z" style="opacity:.3;"></path><path d="M173.77979,333.3116c.5997-.2885,.852-1.0084,.5635-1.608-.2884-.5996-1.0084-.8518-1.608-.5634s-.8518,1.0083-.56329,1.608c.28829,.5995,1.00819,.8518,1.60779,.5634Z" style="opacity:.3;"></path><path d="M161.16949,344.7192c.7409,1.5404,2.5904,2.1884,4.1308,1.4474,1.5403-.7409,2.1883-2.5904,1.4474-4.1308-.741-1.5404-2.5905-2.1884-4.1309-1.4474s-2.1883,2.5904-1.4473,4.1308Z" style="opacity:.3;"></path><path d="M157.46949,334.5443c.5868,1.2198,2.0512,1.7329,3.271,1.1462,1.2198-.5868,1.733-2.0513,1.1462-3.2711s-2.0512-1.7329-3.2711-1.1462c-1.2198,.5868-1.7329,2.0513-1.1461,3.2711Z" style="opacity:.3;"></path><path d="M156.80689,327.5132c.5996-.2884,.8519-1.0083,.5634-1.6079-.2884-.5996-1.0084-.8519-1.6079-.5634-.5995,.2884-.8519,1.0083-.56339,1.6079,.28849,.5996,1.00839,.8518,1.60789,.5634Z" style="opacity:.3;"></path><path d="M141.1674,330.5408c.5869,1.2197,2.0514,1.7329,3.2711,1.1461,1.2197-.5867,1.7329-2.0512,1.1463-3.271-.5868-1.2198-2.0514-1.733-3.2712-1.1462-1.2197,.5868-1.7329,2.0513-1.1462,3.2711Z" style="opacity:.3;"></path><path d="M140.5048,323.5097c.5997-.2885,.852-1.0084,.5636-1.6079-.2885-.5997-1.0084-.8519-1.6081-.5635-.5995,.2885-.8517,1.0084-.5633,1.608,.2883,.5996,1.0083,.8518,1.6078,.5634Z" style="opacity:.3;"></path><path d="M125.852,310.7101c.5995-.2885,.8517-1.0084,.5632-1.608-.2883-.5996-1.0082-.8518-1.6078-.5634-.5997,.2884-.8518,1.0083-.5635,1.608,.2884,.5995,1.0084,.8518,1.6081,.5634Z" style="opacity:.3;"></path><path d="M227.076,349.2743c.59949-.2884,.85169-1.0083,.56329-1.6079-.28829-.5996-1.00829-.8519-1.6078-.5634-.5997,.2884-.852,1.0083-.5636,1.6079,.2885,.5996,1.0084,.8519,1.60811,.5634Z" style="opacity:.3;"></path><path d="M216.31609,348.9864c.5997-.2884,.85191-1.0083,.5636-1.6079-.2885-.5996-1.0084-.8519-1.6081-.5635-.5995,.2885-.8517,1.0084-.5634,1.608,.2885,.5996,1.0084,.8519,1.6079,.5634Z" style="opacity:.3;"></path><path d="M248.16059,360.9612c1.2198-.5868,1.7329-2.0513,1.1461-3.2711s-2.0512-1.733-3.271-1.1462-1.733,2.0513-1.1462,3.2711,2.0512,1.7329,3.2711,1.1462Z" style="opacity:.3;"></path><path d="M242.03189,351.0001c.5996-.2885,.8519-1.0084,.5634-1.608-.2884-.5996-1.0082-.8518-1.6079-.5634s-.8519,1.0083-.56339,1.6079c.28839,.5996,1.00819,.8519,1.60789,.5635Z" style="opacity:.3;"></path><path d="M375.06719,247.3725c1.41-1.1201,1.645-3.1712,.5249-4.5812-1.1202-1.41-3.17109-1.645-4.58109-.5249-1.41011,1.1201-1.64511,3.1712-.525,4.5812,1.12009,1.41,3.17119,1.645,4.58119,.5249Z" style="opacity:.3;"></path><path d="M371.11649,264.5019c1.41-1.1201,1.645-3.1712,.5249-4.5812-1.1202-1.41-3.1711-1.645-4.5811-.5249-1.4101,1.1201-1.6451,3.1712-.525,4.5812s3.1713,1.645,4.5812,.5249Z" style="opacity:.3;"></path><path d="M366.539,281.9679c1.40989-1.1201,1.64489-3.1712,.52479-4.5812s-3.1711-1.645-4.5812-.5249c-1.41,1.1201-1.645,3.1712-.5249,4.5812,1.1202,1.41,3.1711,1.645,4.58131,.5249Z" style="opacity:.3;"></path><path d="M364.84579,220.039c-1.2352,.9813-1.441,2.7781-.45979,4.0133,.98119,1.2353,2.77819,1.4411,4.01339,.4599,1.2352-.9813,1.4411-2.7782,.4597-4.0134-.9812-1.2352-2.778-1.4411-4.0133-.4598Z" style="opacity:.3;"></path><path d="M374.09749,203.7705c1.2352-.9813,1.4411-2.7782,.4597-4.0134-.98119-1.2352-2.778-1.4411-4.01319-.4598-1.23521,.9813-1.44111,2.7781-.45991,4.0133,.9813,1.2353,2.7782,1.4411,4.0134,.4599Z" style="opacity:.3;"></path><path d="M367.16219,232.8294c-1.23519,.9813-1.4411,2.7782-.4599,4.0134,.9814,1.2352,2.7782,1.4411,4.0134,.4599,1.2354-.9813,1.4412-2.7782,.4599-4.0134-.9812-1.2353-2.7781-1.4411-4.0134-.4599Z" style="opacity:.3;"></path><path d="M362.27409,253.3711c.9814,1.2352,2.7782,1.4411,4.0134,.4598,1.2353-.9813,1.4411-2.7781,.4599-4.0133-.9812-1.2353-2.7782-1.4411-4.01339-.4599-1.23521,.9813-1.44111,2.7782-.45991,4.0134Z" style="opacity:.3;"></path><path d="M362.26689,270.1056c1.2352-.9813,1.441-2.7781,.4598-4.0134-.9813-1.2352-2.7782-1.4411-4.0134-.4598-1.2352,.9812-1.4411,2.7781-.4598,4.0133,.9813,1.2353,2.778,1.4411,4.0134,.4599Z" style="opacity:.3;"></path><path d="M355.48529,258.7642c.777,.9782,2.1999,1.1412,3.1781,.3642,.978-.7771,1.1411-2.2,.364-3.1781-.777-.9782-2.1998-1.1412-3.178-.3641-.9782,.777-1.1413,2.1999-.3641,3.178Z" style="opacity:.3;"></path><path d="M352.807,272.7795c-.777-.9782-2.19991-1.1412-3.178-.3642-.97821,.7771-1.14111,2.2-.36411,3.1781,.777,.9782,2.1999,1.1412,3.17811,.3641,.978-.777,1.14109-2.1999,.364-3.178Z" style="opacity:.3;"></path><path d="M360.02449,239.259c-.9782,.7771-1.1413,2.1999-.3643,3.1781,.7771,.9781,2.1999,1.1412,3.1781,.3641,.9782-.777,1.1413-2.1999,.3642-3.178-.777-.9782-2.1999-1.1412-3.178-.3642Z" style="opacity:.3;"></path><path d="M360.44969,231.6882c.9782-.777,1.1412-2.1999,.3641-3.178-.777-.9782-2.1999-1.1412-3.1779-.3641-.9782,.777-1.1413,2.1998-.3643,3.178,.7771,.9782,2.1999,1.1412,3.1781,.3641Z" style="opacity:.3;"></path><path d="M367.07229,211.1855c.1699-1.4828-.8944-2.8226-2.3774-2.9925-1.4828-.1699-2.8226,.8944-2.9925,2.3773s.8944,2.8227,2.3774,2.9926c1.4828,.1699,2.8226-.8945,2.9925-2.3774Z" style="opacity:.3;"></path><path d="M358.39539,219.771c.6911-.5491,.8063-1.5545,.2574-2.2456-.5492-.6912-1.5545-.8064-2.2456-.2573-.6913,.549-.8064,1.5544-.2574,2.2456,.549,.6911,1.5544,.8063,2.2456,.2573Z" style="opacity:.3;"></path><path d="M356.04289,248.1995c.69111-.549,.8064-1.5544,.2572-2.2455-.549-.6912-1.5543-.8064-2.2454-.2573-.6912,.549-.8065,1.5544-.2573,2.2455,.5489,.6912,1.5543,.8064,2.2455,.2573Z" style="opacity:.3;"></path><path d="M349.37979,263.6144c.549,.6911,1.5544,.8063,2.2456,.2573,.6911-.5491,.8063-1.5544,.2573-2.2456-.5491-.6911-1.5545-.8063-2.2455-.2573-.6913,.5491-.8064,1.5544-.2574,2.2456Z" style="opacity:.3;"></path><path d="M348.708,254.8252c.48079-.3819,.561-1.0814,.179-1.5622s-1.08131-.561-1.56221-.179-.5609,1.0814-.1789,1.5623c.3819,.4808,1.0813,.5609,1.56211,.1789Z" style="opacity:.3;"></path><path d="M346.15509,267.5961c.481-.382,.5612-1.0814,.1792-1.5623-.382-.4808-1.0814-.5609-1.56229-.179-.48091,.382-.56091,1.0815-.17911,1.5623,.382,.4808,1.0816,.561,1.5622,.179Z" style="opacity:.3;"></path><path d="M354.41039,286.1057c.9814,1.2352,2.7782,1.4411,4.0134,.4599,1.23521-.9813,1.4411-2.7781,.4599-4.0134-.9812-1.2352-2.7782-1.4411-4.0134-.4598-1.2352,.9812-1.4411,2.7781-.4599,4.0133Z" style="opacity:.3;"></path><path d="M349.72459,244.1627c.4808-.3819,.561-1.0813,.179-1.5622-.382-.4808-1.0814-.5609-1.5622-.179-.4809,.382-.561,1.0814-.179,1.5622,.3819,.4809,1.0814,.561,1.5622,.179Z" style="opacity:.3;"></path><path d="M351.16239,226.3158c-.382-.4808-1.0815-.5609-1.5623-.179-.4808,.382-.561,1.0814-.179,1.5623,.382,.4808,1.0814,.5609,1.5623,.179,.4808-.382,.5609-1.0815,.179-1.5623Z" style="opacity:.3;"></path><path d="M363.17349,190.1925c1.4829,.1699,2.8227-.8945,2.9926-2.3774,.17-1.4828-.8944-2.8227-2.3772-2.9926-1.483-.1698-2.8227,.8945-2.9927,2.3774-.1699,1.4828,.8945,2.8226,2.3773,2.9926Z" style="opacity:.3;"></path><path d="M357.48919,196.4005c.6912-.549,.8065-1.5544,.2573-2.2455-.549-.6912-1.55449-.8064-2.2456-.2573-.691,.549-.8063,1.5544-.2571,2.2455,.5489,.6912,1.5543,.8064,2.2454,.2573Z" style="opacity:.3;"></path><path d="M350.07709,204.5076c.48091-.3819,.561-1.0814,.179-1.5622s-1.0812-.561-1.5622-.179c-.4808,.382-.5608,1.0814-.179,1.5622,.382,.4808,1.0814,.561,1.5622,.179Z" style="opacity:.3;"></path><path d="M351.53659,235.8801c-.4808,.3819-.561,1.0813-.179,1.5622,.382,.4808,1.08141,.5609,1.5622,.179,.4809-.382,.561-1.0814,.179-1.5622-.382-.4809-1.0814-.561-1.5622-.179Z" style="opacity:.3;"></path><path d="M364.05089,195.2245c-1.2352,.9813-1.4411,2.7782-.45989,4.0134,.98139,1.2353,2.77819,1.4411,4.01339,.4599,1.2353-.9813,1.4411-2.7782,.4599-4.0134s-2.7782-1.4411-4.0134-.4599Z" style="opacity:.3;"></path><path d="M357.59259,202.6193c-.9782,.7771-1.1413,2.1999-.3641,3.1781,.777,.9781,2.1999,1.1412,3.1781,.3641,.978-.777,1.1411-2.1999,.3641-3.1781-.7771-.9781-2.1999-1.1411-3.1781-.3641Z" style="opacity:.3;"></path><path d="M350.56279,212.6278c.382,.4809,1.0813,.561,1.5623,.179,.4806-.3819,.5608-1.0813,.1788-1.5622-.382-.4808-1.0813-.5609-1.5622-.179-.48069,.382-.5609,1.0814-.1789,1.5622Z" style="opacity:.3;"></path><path d="M358.36639,183.2799c.9781-.777,1.1411-2.1999,.3641-3.1781-.777-.9781-2.1999-1.1411-3.1781-.3641s-1.1412,2.1999-.3641,3.1781c.7771,.9781,2.1999,1.1412,3.1781,.3641Z" style="opacity:.3;"></path><path d="M350.83639,189.213c.481-.382,.5611-1.0815,.1791-1.5623-.3819-.4808-1.0814-.561-1.5622-.179s-.561,1.0814-.179,1.5623c.3818,.4808,1.0814,.5609,1.5621,.179Z" style="opacity:.3;"></path></g><g style="opacity:.1;"><path d="M288.73329,255.9645c-1.3965-8.0049-8.0347-14.009-14.6555-18.8123-10.3055-7.4764-21.5043-13.6475-32.6695-19.7975-17.41429-9.5919-35.0659-19.2787-54.2114-24.6269-2.1372-.597-4.4098,.2784-5.614,2.1423-2.64789,4.0984-5.2404,9.8158-4.359,13.4294,.8833,3.6208,4.1795,6.0598,7.0914,8.4203,16.2651,13.186,26.0898,32.3895,35.6211,50.9351,4.556,8.8647,9.6207,18.208,18.3969,23.0552,7.7352,4.2722,17.4721,4.2642,25.6765,.9585,8.20421-3.3057,14.9284-9.6455,19.6816-17.0421,3.5737-5.5609,6.1747-12.1682,5.0419-18.662Z" style="fill:#fff;"></path></g><g style="opacity:.2;"><path d="M161.34539,186.2037c-.922-1.4018-2.6148-2.0476-4.19939-2.5993-3.02521-1.0535-6.06251-2.0723-9.1112-3.0563-3.5328-1.1402-7.4499-2.2203-10.8571-.7469-2.9664,1.2828-4.8282,4.2051-6.5093,6.9655-2.9077,4.7744-5.8152,9.5489-8.7229,14.3233-2.1226,3.4856-4.331,7.4202-3.4932,11.4145h0c5.9212-5.4869,11.4545-8.6019,18.7956-11.0041,4.4266-1.4485,9.2826-1.0098,13.7946-2.1655,4.5118-1.1557,9.0388-3.8427,10.58-8.238,.5602-1.598,.6534-3.4785-.2771-4.8932Z" style="fill:#fff;"></path></g><g style="opacity:.1;"><path d="M210.29919,324.419c-6.1451-18.6442-12.29019-37.2884-18.4353-55.9326-2.4814-7.528-4.9842-15.1061-8.8123-22.0466-3.8282-6.9406-13.4781-24.4949-19.6414-16.2719-4.3737,19.5348-6.9015,39.4823-7.5387,59.4906-.1626,5.1096-.1691,10.3993,1.8551,15.0936,2.2433,5.2023,6.724,9.0753,11.2946,12.4228,9.84481,7.2101,20.9282,12.9272,32.8395,15.5784,3.1342,.6976,7.1698,.8015,8.7252-2.0076,1.0542-1.9037,.3944-4.26-.2867-6.3267Z" style="fill:#fff;"></path></g><g style="opacity:.2;"><path d="M148.2303,218.8491c-3.7325-1.0574-7.8221-.0651-11.1528,1.9239s-6.0108,4.8933-8.4771,7.8878c-6.1691,7.4904-11.4443,16.1608-12.6213,25.7929s2.555,20.3207,10.9242,25.2318c.6714,.394,1.4084,.7585,2.1859,.7196,2.0818-.1041,2.8849-2.7155,3.1704-4.7803,2.6343-19.0517,7.8725-37.7415,15.5233-55.3873" style="fill:#fff;"></path></g><g style="opacity:.1;"><path d="M189.89759,177.5214c33.0551,10.2608,64.65641,25.1931,93.5719,44.2146,6.8759,4.5231,14.9213,9.5031,22.7697,7.0253,4.3104-1.3608,7.69781-4.8605,9.81981-8.8515,2.12209-3.991,3.12449-8.4712,3.94779-12.9157,1.0326-5.5742,1.8217-11.2636,1.2323-16.9019-.5893-5.6382-2.6746-11.2778-6.7023-15.2672-6.37479-6.3141-16.1681-7.3883-25.1403-7.4688-19.02049-.1708-38.2388,2.5062-56.9518-.9047-7.7401-1.4109-15.4734-3.8643-23.3031-3.0924s-18.4237,6.3375-19.244,14.1623" style="fill:#fff;"></path></g><g style="opacity:.1;"><path d="M281.15519,120.1147c-20.1216-.3004-40.2758,6.6334-55.9535,19.25-1.2408,.9985-2.5592,2.2448-2.5571,3.8374,.0038,2.7614,3.5955,3.7729,6.3509,3.9549,35.2677,2.3289,70.53551,4.6578,105.8032,6.9868-13.4038-18.2665-34.3174-30.8429-56.736-34.1183" style="fill:#fff;"></path></g><g style="opacity:.2;"><path d="M182.623,155.924c-.38031-2.3998-2.92591-3.7421-4.32341-5.7298-1.54559-2.1982-1.7419-5.3091-3.8167-7.0167-1.7574-1.4464-2.8414-1.7907-4.9094-.8398s-6.3058,4.5041-8.9542,6.8738c-5.9835,5.354-10.1145,9.9456-15.6844,15.7288,4.8463,.6675,9.3132,2.9056,13.9695,4.4053,4.6564,1.4997,9.9578,2.2058,14.2783-.0886,3.4198-1.816,5.6654-5.2056,7.7655-8.4585,.9544-1.4781,1.9502-3.1368,1.67481-4.8745Z" style="fill:#fff;"></path></g><g style="opacity:.2;"><path d="M210.25129,122.2357c-5.7961,2.0121-12.7392,4.2996-18.21029,7.4121-.786,.4471-1.14051,1.3919-.82591,2.2396,.855,2.3038,2.9767,6.3225,5.6082,7.1627,2.4904,.7951,4.839-1.3881,6.657-3.2667,7.2035-7.4432,23.8908-14.8099,33.7224-18.0703-6.4963-.3526-20.5849,2.3124-26.9514,4.5226Z" style="fill:#fff;"></path></g><g style="opacity:.4;"><path d="M170.01149,144.0951c-6.276,3.65-10.6163,7.3816-14.9196,13.3178-.7088,.9779-.88889,2.5718,.0342,3.3506,1.0582,.8929,2.631-.0322,3.6796-.9365,3.8887-3.3542,7.7774-6.7083,11.6662-10.0625,1.0928-.9425,2.2449-1.9794,2.5804-3.383s-.8474-3.1614-3.0408-2.2864Z" style="fill:#fff;"></path></g><circle cx="152.6069" cy="163.3975" r="1.8889" style="fill:#fff; opacity:.4;"></circle></g></g></svg>
