<svg xmlns="http://www.w3.org/2000/svg" viewBox="0 0 750 500"><g id="freepik--Court--inject-65"><g><polygon points="24.943 429.0816 139.4225 313.4896 612.66639 312.5222 724.58628 429.0816 24.943 429.0816" style="fill:#ffbf9d;"></polygon><ellipse cx="374.49047" cy="362.66882" rx="45.95397" ry="14.70778" style="fill:#FF725E;"></ellipse><polygon points="231.6321 374.9534 114.1208 374.9534 137.7668 351.0773 244.8454 350.3842 231.6321 374.9534" style="fill:#FF725E;"></polygon><polygon points="637.22379 375.4792 518.30269 375.4792 502.85169 347.557 609.678 346.7246 637.22379 375.4792" style="fill:#FF725E;"></polygon><g><g style="opacity:.3;"><path d="M715.11838,418.3886c0,.1438-151.9023,.2811-339.23969,.3067-187.4026,.0255-339.27229-.0704-339.27229-.2142s151.8697-.2811,339.27219-.3066c187.33741-.0256,339.23969,.0703,339.23979,.2141Z"></path></g><g style="opacity:.3;"><path d="M699.07058,401.6757c0,.1438-144.6521,.2604-323.04809,.2604-178.458,0-323.07909-.1166-323.07909-.2604s144.6211-.2603,323.07909-.2603c178.396,0,323.04809,.1165,323.04809,.2603Z"></path></g><g style="opacity:.3;"><path d="M681.38118,384.2842c0,.1439-137.524,.2605-307.12899,.2605-169.6641,0-307.15859-.1166-307.15859-.2605,0-.1437,137.4945-.2603,307.15859-.2603,169.605,0,307.12899,.1166,307.12899,.2603Z"></path></g><g style="opacity:.3;"><path d="M654.82809,369.8123c0,.1438-127.7635,.2604-285.33129,.2604-157.6225,0-285.35868-.1166-285.35868-.2604s127.73619-.2604,285.35868-.2604c157.5678,0,285.33129,.1166,285.33129,.2604Z"></path></g><g style="opacity:.3;"><path d="M642.80579,356.1921c0,.1438-121.8696,.2604-272.16849,.2604-150.3512,0-272.19469-.1166-272.19469-.2604s121.8435-.2604,272.19469-.2604c150.2989,0,272.16849,.1166,272.16849,.2604Z"></path></g><g style="opacity:.3;"><path d="M640.50829,342.5719c0,.1438-117.9927,.2604-263.51029,.2604-145.5682,0-263.5357-.1166-263.5357-.2604s117.9675-.2604,263.5357-.2604c145.51759,0,263.51029,.1166,263.51029,.2604Z"></path></g><g style="opacity:.3;"><path d="M632.213,332.0465c0,.1439-114.26061,.2605-255.17551,.2605-140.9639,0-255.19999-.1166-255.19999-.2605,0-.1437,114.2361-.2603,255.19999-.2603,140.9149,0,255.17551,.1166,255.17551,.2603Z"></path></g><g style="opacity:.3;"><path d="M621.05239,322.8645c0,.1438-109.643,.2604-244.86309,.2604-135.2671,0-244.88659-.1166-244.88659-.2604s109.6195-.2604,244.88659-.2604c135.2201,0,244.86309,.1166,244.86309,.2604Z"></path></g><g style="opacity:.1;"><polygon points="81.56105 401.6757 95.8893 384.2843 207.1449 384.2843 199.0255 401.6757 81.56105 401.6757"></polygon></g><g style="opacity:.1;"><polygon points="208.4284 384.2843 215.4435 369.8123 257.9251 369.8123 301.43039 369.8123 295.93329 384.2843 208.4284 384.2843"></polygon></g><g style="opacity:.2;"><polygon points="264.8357 356.0106 368.18039 356.1921 363.78269 369.8123 257.9251 369.8123 264.8357 356.0106" style="fill:#fff;"></polygon></g><g style="opacity:.1;"><polygon points="378.042 342.5719 378.87879 332.0466 501.80919 332.0466 504.641 342.5719 378.042 342.5719"></polygon></g><g style="opacity:.1;"><polygon points="494.243 369.8123 492.29249 356.1921 642.80579 356.1921 654.82819 369.8123 494.243 369.8123"></polygon></g><g style="opacity:.2;"><polygon points="552.79519 401.6757 547.77949 384.2843 657.165 384.2843 666.46809 401.6757 552.79519 401.6757" style="fill:#fff;"></polygon></g><g style="opacity:.1;"><polygon points="138.9262 332.0466 233.7497 332.0466 238.2006 322.8645 146.491 322.8645 138.9262 332.0466"></polygon></g><g style="opacity:.1;"><polygon points="269.5002 342.5719 276.46459 332.0466 352.82379 332.0466 349.59039 342.5719 269.5002 342.5719"></polygon></g><g style="opacity:.1;"><polygon points="435.02789 419.0672 432.45729 401.6757 375.43819 401.6757 374.26979 419.0672 435.02789 419.0672"></polygon></g><g style="opacity:.1;"><path d="M477.27329,384.2843l-2.5449-14.472h94.16061s7.84669,14.472,7.21049,14.472h-98.8262Z"></path></g></g><g style="opacity:.2;"><polygon points="207.11 429.0816 216.2944 414.0609 315.81959 414.6601 310.55779 429.0816 207.11 429.0816" style="fill:#fff;"></polygon></g><g style="opacity:.2;"><polygon points="449.74639 321.8611 449.74639 313.0039 511.77359 313.0039 515.84569 321.8611 449.74639 321.8611" style="fill:#fff;"></polygon></g><g><path d="M680.77208,419.389H68.70619l95.28761-96.2149,423.48139-.9482,.2969,.3086,93,96.8545Zm-607.27048-2H676.07878l-89.4532-93.1611-421.79589,.9443-91.3281,92.2168Z" style="fill:#fff;"></path><path d="M126.7907,407.3636h-43.77738v-2h43.77738c81.8623,0,159.25919-22.2158,159.25919-45.7139,0-23.7685-46.7998-28.4189-127.63719-28.4189v-2c46.5635,0,74.8174,1.5996,94.4742,5.3486,23.9897,4.5762,35.163,12.542,35.163,25.0703,0,12.4004-18.062,24.3682-50.8593,33.6973-31.3155,8.9072-71.5547,14.0166-110.3999,14.0166Z" style="fill:#fff;"></path><path d="M666.87859,407.3636h-47.93459c-80.46191,0-156.53521-23.8252-156.53521-49.0254,0-24.9492,47.9131-29.8301,130.6739-29.8301v2c-67.8086,0-128.6739,2.1289-128.6739,27.8301,0,23.7324,76.5459,47.0254,154.53521,47.0254h47.93459v2Z" style="fill:#fff;"></path><path d="M639.567,376.4788h-121.85451l-16.5507-29.9092,108.9404-.8476,29.46481,30.7568Zm-120.67481-2h115.9893l-25.627-26.7509-104.7138,.8164,14.3515,25.9345Z" style="fill:#fff;"></path><path d="M232.2296,375.9534H111.7228l25.624-25.873,.4136-.0029,108.7642-.7041-14.295,26.58Zm-115.7109-2h114.5156l12.1319-22.5586-104.9795,.6797-21.668,21.8789Z" style="fill:#fff;"></path><path d="M231.632,375.9534v-2c26.4926,0,46.28849-6.0517,46.28849-11.4629,0-5.621-16.6186-9.8867-32.2553-11.0468l.1474-1.9942c16.9776,1.2588,34.1079,5.7793,34.1079,13.041,0,8.3155-25.0654,13.4629-48.28849,13.4629Z" style="fill:#fff;"></path><path d="M518.30239,376.4788c-24.8428,0-46.6338-7.9726-46.6338-17.0615,0-6.0195,10.1592-10.2236,31.0576-12.8525l.25,1.9843c-25.5,3.208-29.3076,8.1866-29.3076,10.8682,0,6.9648,19.4971,15.0615,44.6338,15.0615v2Z" style="fill:#fff;"></path><rect x="373.81359" y="322.9036" width="2" height="95.8077" style="fill:#fff;"></rect><path d="M374.81359,378.3763c-26.9404,0-48.0434-6.8994-48.0434-15.707,0-8.8086,21.103-15.708,48.0434-15.708s48.0435,6.8994,48.0435,15.708c0,8.8076-21.1035,15.707-48.0435,15.707Zm0-29.415c-27.542,0-46.0434,7.0878-46.0434,13.708,0,6.6191,18.5014,13.707,46.0434,13.707s46.0435-7.0879,46.0435-13.707c0-6.6202-18.501-13.708-46.0435-13.708Z" style="fill:#fff;"></path></g></g></g></svg>
