<svg xmlns="http://www.w3.org/2000/svg" viewBox="0 0 750 500"><g id="freepik--Score_board--inject-65"><g><rect x="367.15739" y="15.0747" width="15.6852" height="56.3567" style="fill:#e0e0e0;"></rect><g><g><g><rect x="279.88849" y="51.706" width="190.223" height="114.8013" style="fill:#455a64;"></rect><path d="M470.11149,166.5073s-.0144-.7089-.0217-2.0685c-.0051-1.3652-.0126-3.3802-.0225-6.0161-.0118-5.2797-.0291-13.0395-.0514-22.9973-.0255-19.8991-.0623-48.5751-.1073-83.7193l.2028,.2029c-51.4038,.0155-117.8667,.0356-190.2083,.0574h-.0145l.2603-.2603c-.0068,40.6724-.0133,79.4828-.0192,114.8011l-.2411-.2412c55.7881,.048,103.3129,.0889,136.9001,.1178,16.8065,.028,30.1239,.0501,39.2488,.0653,4.5606,.0129,8.0716,.0228,10.4518,.0295,1.18371,.0063,2.0844,.0111,2.6983,.0144,.60741,.0047,.9239,.0143,.9239,.0143,0,0-.2973,.0096-.8954,.0144-.6076,.0033-1.4992,.0081-2.6709,.0143-2.369,.0068-5.8637,.0167-10.403,.0295-9.1123,.0152-22.4111,.0374-39.194,.0653-33.6264,.0289-81.2065,.0698-137.0596,.1178l-.2413,.0002-.0001-.2416c-.0059-35.3183-.0123-74.1287-.0191-114.8011v-.2604h.275c72.3416,.0218,138.8045,.0419,190.2083,.0574l.2033,.0001-.0002,.2029c-.0451,35.1969-.0819,63.9158-.1074,83.8447-.0222,9.9381-.0395,17.6826-.0514,22.9518-.0098,2.6195-.0173,4.6218-.0224,5.9785-.0074,1.3461-.0218,2.0262-.0218,2.0262Z" style="fill:#263238;"></path></g><g><path d="M307.77209,59.8841v7.6904h-1.7803v-3.1528h-3.4931v3.1528h-1.7803v-7.6904h1.7803v3.0322h3.4931v-3.0322h1.7803Z" style="fill:#fff;"></path><path d="M309.112,63.7293c0-2.2851,1.78019-3.977,4.208-3.977,2.417,0,4.208,1.6811,4.208,3.977s-1.791,3.9771-4.208,3.9771c-2.42781,0-4.208-1.6919-4.208-3.9771Zm6.61419,0c0-1.4609-1.03319-2.4609-2.40619-2.4609-1.37311,0-2.40631,1-2.40631,2.4609,0,1.461,1.0332,2.461,2.40631,2.461,1.373,0,2.40619-1,2.40619-2.461Z" style="fill:#fff;"></path><path d="M325.86629,67.5745l-.0112-4.6142-2.2627,3.8012h-.8022l-2.2525-3.7021v4.5151h-1.6699v-7.6904h1.4727l2.8779,4.7788,2.835-4.7788h1.4609l.022,7.6904h-1.67Z" style="fill:#fff;"></path><path d="M335.31409,66.1463v1.4282h-5.95409v-7.6904h5.81149v1.4282h-4.0429v1.6699h3.5703v1.3843h-3.5703v1.7798h4.1855Z" style="fill:#fff;"></path></g><rect x="289.48969" y="71.4314" width="57.6705" height="37.6753" style="fill:#263238;"></rect><g style="opacity:.1;"><polygon points="307.13819 102.9713 308.25109 101.5168 308.23879 92.5913 306.82519 90.9518 305.40279 92.6282 305.40279 100.7282 307.13819 102.9713" style="fill:#fff;"></polygon><polygon points="307.17209 77.2404 308.24749 78.968 308.24749 87.5502 306.75279 89.1413 305.40279 87.5502 305.40279 79.4502 307.17209 77.2404" style="fill:#fff;"></polygon><polygon points="294.13969 77.2404 293.02679 78.695 293.03909 87.6205 294.45279 89.2599 295.87509 87.5836 295.87509 79.4836 294.13969 77.2404" style="fill:#fff;"></polygon><polygon points="294.10579 102.9713 293.03039 101.2437 293.03039 92.6615 294.52509 91.0705 295.87509 92.6615 295.87509 100.7616 294.10579 102.9713" style="fill:#fff;"></polygon><polygon points="295.19029 90.1453 296.44389 88.6024 304.83319 88.6024 306.04269 90.1212 304.83319 91.6399 296.39569 91.6399 295.19029 90.1453" style="fill:#fff;"></polygon><polygon points="294.71789 103.583 296.53729 101.2435 304.77589 101.2435 306.54179 103.5928 305.95289 104.4266 295.38709 104.4266 294.71789 103.583" style="fill:#fff;"></polygon><polygon points="306.54179 76.8072 304.72239 79.1467 296.48379 79.1467 294.71789 76.7973 295.30679 75.9636 305.87259 75.9636 306.54179 76.8072" style="fill:#fff;"></polygon><polygon points="324.62109 102.9713 325.734 101.5168 325.72169 92.5913 324.308 90.9518 322.88569 92.6282 322.88569 100.7282 324.62109 102.9713" style="fill:#fff;"></polygon><polygon points="324.655 77.2404 325.73029 78.968 325.73029 87.5502 324.23569 89.1413 322.88569 87.5502 322.88569 79.4502 324.655 77.2404" style="fill:#fff;"></polygon><polygon points="311.62259 77.2404 310.50969 78.695 310.52189 87.6205 311.93559 89.2599 313.358 87.5836 313.358 79.4836 311.62259 77.2404" style="fill:#fff;"></polygon><polygon points="311.58859 102.9713 310.51329 101.2437 310.51329 92.6615 312.008 91.0705 313.358 92.6615 313.358 100.7616 311.58859 102.9713" style="fill:#fff;"></polygon><polygon points="312.67309 90.1453 313.92669 88.6024 322.316 88.6024 323.52559 90.1212 322.316 91.6399 313.87849 91.6399 312.67309 90.1453" style="fill:#fff;"></polygon><polygon points="312.20079 103.583 314.02019 101.2435 322.25879 101.2435 324.02459 103.5928 323.43569 104.4266 312.87 104.4266 312.20079 103.583" style="fill:#fff;"></polygon><polygon points="324.02459 76.8072 322.20519 79.1467 313.96659 79.1467 312.20079 76.7973 312.78969 75.9636 323.35539 75.9636 324.02459 76.8072" style="fill:#fff;"></polygon><polygon points="342.51019 102.9713 343.62309 101.5168 343.61079 92.5913 342.19709 90.9518 340.77479 92.6282 340.77479 100.7282 342.51019 102.9713" style="fill:#fff;"></polygon><polygon points="342.54409 77.2404 343.61949 78.968 343.61949 87.5502 342.12479 89.1413 340.77479 87.5502 340.77479 79.4502 342.54409 77.2404" style="fill:#fff;"></polygon><polygon points="329.51169 77.2404 328.39879 78.695 328.41109 87.6205 329.82469 89.2599 331.24709 87.5836 331.24709 79.4836 329.51169 77.2404" style="fill:#fff;"></polygon><polygon points="329.47769 102.9713 328.40239 101.2437 328.40239 92.6615 329.89709 91.0705 331.24709 92.6615 331.24709 100.7616 329.47769 102.9713" style="fill:#fff;"></polygon><polygon points="330.56229 90.1453 331.81589 88.6024 340.20509 88.6024 341.41469 90.1212 340.20509 91.6399 331.76769 91.6399 330.56229 90.1453" style="fill:#fff;"></polygon><polygon points="330.08989 103.583 331.90929 101.2435 340.14789 101.2435 341.91369 103.5928 341.32479 104.4266 330.75909 104.4266 330.08989 103.583" style="fill:#fff;"></polygon><polygon points="341.91369 76.8072 340.09439 79.1467 331.85579 79.1467 330.08989 76.7973 330.67879 75.9636 341.24449 75.9636 341.91369 76.8072" style="fill:#fff;"></polygon></g><g><path d="M417.46739,63.6082h1.626v3.1201c-.8457,.6377-2.0107,.9781-3.10939,.9781-2.417,0-4.19631-1.6587-4.19631-3.9771s1.77931-3.977,4.2295-3.977c1.3516,0,2.4717,.4614,3.21881,1.3296l-1.14261,1.0546c-.5605-.5937-1.208-.8681-1.9883-.8681-1.49409,0-2.5156,1-2.5156,2.4609,0,1.4395,1.02151,2.461,2.4941,2.461,.4825,0,.9336-.0879,1.3838-.3296v-2.2525Z" style="fill:#fff;"></path><path d="M420.67539,64.1907v-4.3066h1.7803v4.2407c0,1.461,.6367,2.0655,1.7139,2.0655,1.0879,0,1.7138-.6045,1.7138-2.0655v-4.2407h1.7579v4.3066c0,2.2632-1.2969,3.5157-3.4834,3.5157-2.1856,0-3.4825-1.2525-3.4825-3.5157Z" style="fill:#fff;"></path><path d="M435.35319,66.1463v1.4282h-5.9541v-7.6904h5.8115v1.4282h-4.043v1.6699h3.5703v1.3843h-3.5703v1.7798h4.1856Z" style="fill:#fff;"></path><path d="M436.16569,66.8162l.6045-1.3398c.6474,.4722,1.6142,.8017,2.538,.8017,1.0547,0,1.4825-.3515,1.4825-.8242,0-1.4389-4.47069-.4502-4.47069-3.3066,0-1.3076,1.05459-2.395,3.24019-2.395,.96681,0,1.9561,.2309,2.6699,.6811l-.5488,1.3516c-.7149-.4068-1.4512-.6045-2.1318-.6045-1.0547,0-1.461,.3955-1.461,.8789,0,1.417,4.4717,.4394,4.4717,3.2627,0,1.2856-1.0664,2.3843-3.2637,2.3843-1.2187,0-2.4492-.3628-3.1308-.8902Z" style="fill:#fff;"></path><path d="M445.26229,61.3343h-2.4609v-1.4502h6.7022v1.4502h-2.461v6.2402h-1.7803v-6.2402Z" style="fill:#fff;"></path></g><g><path d="M363.28139,72.2508c0,1.2397-.9302,2.0112-2.4165,2.0112h-1.1211v1.5342h-1.2881v-5.5649h2.4092c1.4863,0,2.4165,.771,2.4165,2.0195Zm-1.3037,0c0-.6123-.3975-.9702-1.1846-.9702h-1.0493v1.9321h1.0493c.7871,0,1.1846-.3579,1.1846-.9619Z" style="fill:#fff;"></path><path d="M368.507,74.7625v1.0337h-4.30911v-5.5649h4.2056v1.0337h-2.9253v1.208h2.5835v1.0019h-2.5835v1.2876h3.02881Z" style="fill:#fff;"></path><path d="M373.07969,75.7962l-1.0732-1.5503h-1.1846v1.5503h-1.2871v-5.5649h2.40821c1.48729,0,2.417,.771,2.417,2.0195,0,.8345-.42091,1.4468-1.14451,1.7568l1.248,1.7886h-1.3838Zm-1.208-4.5156h-1.0498v1.9399h1.0498c.7871,0,1.1846-.3657,1.1846-.9697,0-.6123-.3975-.9702-1.1846-.9702Z" style="fill:#fff;"></path><path d="M375.38049,70.2313h1.2871v5.5649h-1.2871v-5.5649Z" style="fill:#fff;"></path><path d="M377.63829,73.014c0-1.6538,1.2881-2.8779,3.0449-2.8779,1.7491,0,3.045,1.2163,3.045,2.8779,0,1.6611-1.2959,2.8774-3.045,2.8774-1.7568,0-3.0449-1.2241-3.0449-2.8774Zm4.7862,0c0-1.0576-.7471-1.7808-1.7413-1.7808-.9931,0-1.74019,.7232-1.74019,1.7808,0,1.0571,.74709,1.7807,1.74019,1.7807,.9942,0,1.7413-.7236,1.7413-1.7807Z" style="fill:#fff;"></path><path d="M384.70179,70.2313h2.5273c1.8213,0,3.0694,1.0971,3.0694,2.7827,0,1.685-1.2481,2.7822-3.0694,2.7822h-2.5273v-5.5649Zm2.4639,4.5078c1.1054,0,1.8291-.6602,1.8291-1.7251,0-1.0654-.7237-1.7251-1.8291-1.7251h-1.1768v3.4502h1.1768Z" style="fill:#fff;"></path></g><rect x="401.04229" y="71.4314" width="57.6705" height="37.6753" style="fill:#263238;"></rect><g style="opacity:.1;"><polygon points="418.69079 102.9713 419.80369 101.5168 419.79139 92.5913 418.37769 90.9518 416.95539 92.6282 416.95539 100.7282 418.69079 102.9713" style="fill:#fff;"></polygon><polygon points="418.72469 77.2404 419.8 78.968 419.8 87.5502 418.30539 89.1413 416.95539 87.5502 416.95539 79.4502 418.72469 77.2404" style="fill:#fff;"></polygon><polygon points="405.69229 77.2404 404.57929 78.695 404.59169 87.6205 406.00529 89.2599 407.42759 87.5836 407.42759 79.4836 405.69229 77.2404" style="fill:#fff;"></polygon><polygon points="405.65829 102.9713 404.583 101.2437 404.583 92.6615 406.07759 91.0705 407.42759 92.6615 407.42759 100.7616 405.65829 102.9713" style="fill:#fff;"></polygon><polygon points="406.74289 90.1453 407.99639 88.6024 416.38569 88.6024 417.59529 90.1212 416.38569 91.6399 407.94819 91.6399 406.74289 90.1453" style="fill:#fff;"></polygon><polygon points="406.27049 103.583 408.08989 101.2435 416.32849 101.2435 418.09429 103.5928 417.50539 104.4266 406.93969 104.4266 406.27049 103.583" style="fill:#fff;"></polygon><polygon points="418.09429 76.8072 416.27489 79.1467 408.03639 79.1467 406.27049 76.7973 406.85939 75.9636 417.42509 75.9636 418.09429 76.8072" style="fill:#fff;"></polygon><polygon points="436.17359 102.9713 437.28659 101.5168 437.27429 92.5913 435.86059 90.9518 434.43829 92.6282 434.43829 100.7282 436.17359 102.9713" style="fill:#fff;"></polygon><polygon points="436.20759 77.2404 437.28289 78.968 437.28289 87.5502 435.78829 89.1413 434.43829 87.5502 434.43829 79.4502 436.20759 77.2404" style="fill:#fff;"></polygon><polygon points="423.17519 77.2404 422.06219 78.695 422.07449 87.6205 423.48819 89.2599 424.91049 87.5836 424.91049 79.4836 423.17519 77.2404" style="fill:#fff;"></polygon><polygon points="423.14119 102.9713 422.06589 101.2437 422.06589 92.6615 423.56049 91.0705 424.91049 92.6615 424.91049 100.7616 423.14119 102.9713" style="fill:#fff;"></polygon><polygon points="424.22569 90.1453 425.47929 88.6024 433.86859 88.6024 435.07809 90.1212 433.86859 91.6399 425.43109 91.6399 424.22569 90.1453" style="fill:#fff;"></polygon><polygon points="423.75339 103.583 425.57279 101.2435 433.81129 101.2435 435.57719 103.5928 434.98829 104.4266 424.42259 104.4266 423.75339 103.583" style="fill:#fff;"></polygon><polygon points="435.57719 76.8072 433.75779 79.1467 425.51919 79.1467 423.75339 76.7973 424.34229 75.9636 434.908 75.9636 435.57719 76.8072" style="fill:#fff;"></polygon><polygon points="454.06269 102.9713 455.17569 101.5168 455.16339 92.5913 453.74969 90.9518 452.32739 92.6282 452.32739 100.7282 454.06269 102.9713" style="fill:#fff;"></polygon><polygon points="454.09669 77.2404 455.172 78.968 455.172 87.5502 453.67739 89.1413 452.32739 87.5502 452.32739 79.4502 454.09669 77.2404" style="fill:#fff;"></polygon><polygon points="441.06429 77.2404 439.95129 78.695 439.96359 87.6205 441.37729 89.2599 442.79959 87.5836 442.79959 79.4836 441.06429 77.2404" style="fill:#fff;"></polygon><polygon points="441.03029 102.9713 439.955 101.2437 439.955 92.6615 441.44959 91.0705 442.79959 92.6615 442.79959 100.7616 441.03029 102.9713" style="fill:#fff;"></polygon><polygon points="442.11489 90.1453 443.36839 88.6024 451.75769 88.6024 452.96729 90.1212 451.75769 91.6399 443.32019 91.6399 442.11489 90.1453" style="fill:#fff;"></polygon><polygon points="441.64249 103.583 443.46189 101.2435 451.70049 101.2435 453.46629 103.5928 452.87739 104.4266 442.31169 104.4266 441.64249 103.583" style="fill:#fff;"></polygon><polygon points="453.46629 76.8072 451.64689 79.1467 443.40829 79.1467 441.64249 76.7973 442.23139 75.9636 452.79709 75.9636 453.46629 76.8072" style="fill:#fff;"></polygon></g><g><rect x="329.50169" y="121.3778" width="83.74531" height="37.6753" style="fill:#263238;"></rect><g style="opacity:.1;"><polygon points="348.65059 152.9917 349.76349 151.5372 349.75119 142.6116 348.33749 140.9722 346.91519 142.6485 346.91519 150.7485 348.65059 152.9917" style="fill:#fff;"></polygon><polygon points="348.68449 127.2608 349.75989 128.9884 349.75989 137.5706 348.26519 139.1617 346.91519 137.5706 346.91519 129.4706 348.68449 127.2608" style="fill:#fff;"></polygon><polygon points="335.65209 127.2608 334.53919 128.7154 334.55149 137.6409 335.96509 139.2803 337.38749 137.604 337.38749 129.504 335.65209 127.2608" style="fill:#fff;"></polygon><polygon points="335.61809 152.9917 334.54279 151.2641 334.54279 142.6819 336.03749 141.0908 337.38749 142.6819 337.38749 150.782 335.61809 152.9917" style="fill:#fff;"></polygon><polygon points="336.70269 140.1656 337.95629 138.6228 346.34549 138.6228 347.55509 140.1415 346.34549 141.6603 337.908 141.6603 336.70269 140.1656" style="fill:#fff;"></polygon><polygon points="336.23029 153.6033 338.04969 151.2639 346.28829 151.2639 348.05419 153.6132 347.46519 154.447 336.89949 154.447 336.23029 153.6033" style="fill:#fff;"></polygon><polygon points="348.05419 126.8276 346.23479 129.167 337.99619 129.167 336.23029 126.8177 336.81919 125.9839 347.38489 125.9839 348.05419 126.8276" style="fill:#fff;"></polygon><polygon points="366.13339 152.9917 367.24639 151.5372 367.23409 142.6116 365.82039 140.9722 364.39809 142.6485 364.39809 150.7485 366.13339 152.9917" style="fill:#fff;"></polygon><polygon points="366.16739 127.2608 367.24269 128.9884 367.24269 137.5706 365.74809 139.1617 364.39809 137.5706 364.39809 129.4706 366.16739 127.2608" style="fill:#fff;"></polygon><polygon points="353.135 127.2608 352.022 128.7154 352.03429 137.6409 353.448 139.2803 354.87029 137.604 354.87029 129.504 353.135 127.2608" style="fill:#fff;"></polygon><polygon points="353.101 152.9917 352.02569 151.2641 352.02569 142.6819 353.52029 141.0908 354.87029 142.6819 354.87029 150.782 353.101 152.9917" style="fill:#fff;"></polygon><polygon points="354.18549 140.1656 355.43909 138.6228 363.82839 138.6228 365.03789 140.1415 363.82839 141.6603 355.39089 141.6603 354.18549 140.1656" style="fill:#fff;"></polygon><polygon points="353.71319 153.6033 355.53259 151.2639 363.77109 151.2639 365.537 153.6132 364.94809 154.447 354.38239 154.447 353.71319 153.6033" style="fill:#fff;"></polygon><polygon points="365.537 126.8276 363.71759 129.167 355.479 129.167 353.71319 126.8177 354.30209 125.9839 364.86779 125.9839 365.537 126.8276" style="fill:#fff;"></polygon></g><g style="opacity:.1;"><polygon points="390.98109 152.9917 392.094 151.5372 392.08169 142.6116 390.668 140.9722 389.24569 142.6485 389.24569 150.7485 390.98109 152.9917" style="fill:#fff;"></polygon><polygon points="391.015 127.2608 392.09029 128.9884 392.09029 137.5706 390.59569 139.1617 389.24569 137.5706 389.24569 129.4706 391.015 127.2608" style="fill:#fff;"></polygon><polygon points="377.98249 127.2608 376.86959 128.7154 376.882 137.6409 378.29559 139.2803 379.71789 137.604 379.71789 129.504 377.98249 127.2608" style="fill:#fff;"></polygon><polygon points="377.94859 152.9917 376.87329 151.2641 376.87329 142.6819 378.36789 141.0908 379.71789 142.6819 379.71789 150.782 377.94859 152.9917" style="fill:#fff;"></polygon><polygon points="379.03319 140.1656 380.28669 138.6228 388.676 138.6228 389.88559 140.1415 388.676 141.6603 380.23849 141.6603 379.03319 140.1656" style="fill:#fff;"></polygon><polygon points="378.56079 153.6033 380.38019 151.2639 388.61879 151.2639 390.38459 153.6132 389.79569 154.447 379.23 154.447 378.56079 153.6033" style="fill:#fff;"></polygon><polygon points="390.38459 126.8276 388.56519 129.167 380.32659 129.167 378.56079 126.8177 379.14969 125.9839 389.71539 125.9839 390.38459 126.8276" style="fill:#fff;"></polygon><polygon points="408.46389 152.9917 409.57679 151.5372 409.56449 142.6116 408.15089 140.9722 406.72849 142.6485 406.72849 150.7485 408.46389 152.9917" style="fill:#fff;"></polygon><polygon points="408.49789 127.2608 409.57319 128.9884 409.57319 137.5706 408.07849 139.1617 406.72849 137.5706 406.72849 129.4706 408.49789 127.2608" style="fill:#fff;"></polygon><polygon points="395.46539 127.2608 394.35249 128.7154 394.36479 137.6409 395.77849 139.2803 397.20079 137.604 397.20079 129.504 395.46539 127.2608" style="fill:#fff;"></polygon><polygon points="395.43149 152.9917 394.35609 151.2641 394.35609 142.6819 395.85079 141.0908 397.20079 142.6819 397.20079 150.782 395.43149 152.9917" style="fill:#fff;"></polygon><polygon points="396.516 140.1656 397.76959 138.6228 406.15889 138.6228 407.36839 140.1415 406.15889 141.6603 397.72139 141.6603 396.516 140.1656" style="fill:#fff;"></polygon><polygon points="396.04369 153.6033 397.86309 151.2639 406.10159 151.2639 407.86749 153.6132 407.27849 154.447 396.71279 154.447 396.04369 153.6033" style="fill:#fff;"></polygon><polygon points="407.86749 126.8276 406.04809 129.167 397.80949 129.167 396.04369 126.8177 396.63249 125.9839 407.19819 125.9839 407.86749 126.8276" style="fill:#fff;"></polygon></g><path d="M373.20919,136.7689c0,.7218-.58519,1.307-1.307,1.307s-1.3069-.5852-1.3069-1.307,.5851-1.3069,1.3069-1.3069,1.307,.5851,1.307,1.3069Z" style="fill:#FF725E;"></path><path d="M373.20919,143.5393c0,.7218-.58519,1.3069-1.307,1.3069s-1.3069-.5851-1.3069-1.3069,.5851-1.307,1.3069-1.307,1.307,.5852,1.307,1.307Z" style="fill:#FF725E;"></path></g><rect x="429.65189" y="121.3778" width="22.6755" height="4.6061" style="fill:#263238;"></rect><rect x="429.87749" y="131.8891" width="21.5493" height="25.6865" style="fill:#263238;"></rect><rect x="294.94019" y="121.3778" width="22.6754" height="4.6061" style="fill:#263238;"></rect><rect x="295.16579" y="131.8891" width="21.5493" height="25.6865" style="fill:#263238;"></rect><rect x="363.65879" y="79.1467" width="21.08921" height="28.7058" style="fill:#263238;"></rect><g style="opacity:.1;"><polygon points="379.45129 102.3428 380.235 101.3185 380.22639 95.0332 379.23089 93.8787 378.22929 95.0592 378.22929 100.7632 379.45129 102.3428" style="fill:#fff;"></polygon><polygon points="379.47519 84.2233 380.23249 85.4398 380.23249 91.4833 379.17989 92.6038 378.22929 91.4833 378.22929 85.7794 379.47519 84.2233" style="fill:#fff;"></polygon><polygon points="370.29789 84.2233 369.51419 85.2476 369.52279 91.5328 370.51829 92.6873 371.51989 91.5068 371.51989 85.8029 370.29789 84.2233" style="fill:#fff;"></polygon><polygon points="370.274 102.3428 369.51669 101.1262 369.51669 95.0827 370.56929 93.9623 371.51989 95.0827 371.51989 100.7867 370.274 102.3428" style="fill:#fff;"></polygon><polygon points="371.03769 93.3108 371.92039 92.2243 377.82809 92.2243 378.67989 93.2938 377.82809 94.3633 371.88649 94.3633 371.03769 93.3108" style="fill:#fff;"></polygon><polygon points="370.70509 102.7735 371.98629 101.1261 377.78779 101.1261 379.03129 102.7804 378.61659 103.3676 371.17629 103.3676 370.70509 102.7735" style="fill:#fff;"></polygon><polygon points="379.03129 83.9182 377.75009 85.5656 371.94859 85.5656 370.70509 83.9112 371.11979 83.3241 378.56009 83.3241 379.03129 83.9182" style="fill:#fff;"></polygon></g><g><polygon points="324.62109 103.0452 325.734 101.5907 325.72169 92.6652 324.308 91.0258 322.88569 92.7021 322.88569 100.8021 324.62109 103.0452" style="fill:#FF725E;"></polygon><polygon points="324.655 77.3144 325.73029 79.042 325.73029 87.6241 324.23569 89.2152 322.88569 87.6241 322.88569 79.5241 324.655 77.3144" style="fill:#FF725E;"></polygon><polygon points="311.62259 77.3144 310.50969 78.7689 310.52189 87.6944 311.93559 89.3338 313.358 87.6575 313.358 79.5575 311.62259 77.3144" style="fill:#FF725E;"></polygon><polygon points="312.67309 90.2192 313.92669 88.6764 322.316 88.6764 323.52559 90.1951 322.316 91.7138 313.87849 91.7138 312.67309 90.2192" style="fill:#FF725E;"></polygon><polygon points="342.51019 103.0452 343.62309 101.5907 343.61079 92.6652 342.19709 91.0258 340.77479 92.7021 340.77479 100.8021 342.51019 103.0452" style="fill:#FF725E;"></polygon><polygon points="342.54409 77.3144 343.61949 79.042 343.61949 87.6241 342.12479 89.2152 340.77479 87.6241 340.77479 79.5241 342.54409 77.3144" style="fill:#FF725E;"></polygon><polygon points="329.51169 77.3144 328.39879 78.7689 328.41109 87.6944 329.82469 89.3338 331.24709 87.6575 331.24709 79.5575 329.51169 77.3144" style="fill:#FF725E;"></polygon><polygon points="330.56229 90.2192 331.81589 88.6764 340.20509 88.6764 341.41469 90.1951 340.20509 91.7138 331.76769 91.7138 330.56229 90.2192" style="fill:#FF725E;"></polygon></g><g><polygon points="436.20759 77.2404 437.28289 78.968 437.28289 87.5502 435.78829 89.1413 434.43829 87.5502 434.43829 79.4502 436.20759 77.2404" style="fill:#FF725E;"></polygon><polygon points="423.14119 102.9713 422.06589 101.2437 422.06589 92.6615 423.56049 91.0705 424.91049 92.6615 424.91049 100.7616 423.14119 102.9713" style="fill:#FF725E;"></polygon><polygon points="424.22569 90.1453 425.47929 88.6024 433.86859 88.6024 435.07809 90.1212 433.86859 91.6399 425.43109 91.6399 424.22569 90.1453" style="fill:#FF725E;"></polygon><polygon points="423.75339 103.583 425.57279 101.2435 433.81129 101.2435 435.57719 103.5928 434.98829 104.4266 424.42259 104.4266 423.75339 103.583" style="fill:#FF725E;"></polygon><polygon points="435.57719 76.8072 433.75779 79.1467 425.51919 79.1467 423.75339 76.7973 424.34229 75.9636 434.908 75.9636 435.57719 76.8072" style="fill:#FF725E;"></polygon><polygon points="454.06269 102.9713 455.17569 101.5168 455.16339 92.5913 453.74969 90.9518 452.32739 92.6282 452.32739 100.7282 454.06269 102.9713" style="fill:#FF725E;"></polygon><polygon points="454.09669 77.2404 455.172 78.968 455.172 87.5502 453.67739 89.1413 452.32739 87.5502 452.32739 79.4502 454.09669 77.2404" style="fill:#FF725E;"></polygon><polygon points="442.11489 90.1453 443.36839 88.6024 451.75769 88.6024 452.96729 90.1212 451.75769 91.6399 443.32019 91.6399 442.11489 90.1453" style="fill:#FF725E;"></polygon><polygon points="441.64249 103.583 443.46189 101.2435 451.70049 101.2435 453.46629 103.5928 452.87739 104.4266 442.31169 104.4266 441.64249 103.583" style="fill:#FF725E;"></polygon><polygon points="453.46629 76.8072 451.64689 79.1467 443.40829 79.1467 441.64249 76.7973 442.23139 75.9636 452.79709 75.9636 453.46629 76.8072" style="fill:#FF725E;"></polygon></g><g><polygon points="379.45129 102.3428 380.235 101.3185 380.22639 95.0332 379.23089 93.8787 378.22929 95.0592 378.22929 100.7632 379.45129 102.3428" style="fill:#FF725E;"></polygon><polygon points="379.47519 84.2233 380.23249 85.4398 380.23249 91.4833 379.17989 92.6038 378.22929 91.4833 378.22929 85.7794 379.47519 84.2233" style="fill:#FF725E;"></polygon></g><g><polygon points="348.69829 152.9917 349.81129 151.5372 349.79889 142.6116 348.38529 140.9722 346.963 142.6485 346.963 150.7485 348.69829 152.9917" style="fill:#FF725E;"></polygon><polygon points="348.73219 127.2608 349.80759 128.9884 349.80759 137.5706 348.313 139.1617 346.963 137.5706 346.963 129.4706 348.73219 127.2608" style="fill:#FF725E;"></polygon><polygon points="366.18119 152.9917 367.29409 151.5372 367.28179 142.6116 365.86809 140.9722 364.44579 142.6485 364.44579 150.7485 366.18119 152.9917" style="fill:#FF725E;"></polygon><polygon points="366.21509 127.2608 367.29039 128.9884 367.29039 137.5706 365.79579 139.1617 364.44579 137.5706 364.44579 129.4706 366.21509 127.2608" style="fill:#FF725E;"></polygon><polygon points="391.02879 152.9917 392.14169 151.5372 392.12939 142.6116 390.71569 140.9722 389.29339 142.6485 389.29339 150.7485 391.02879 152.9917" style="fill:#FF725E;"></polygon><polygon points="391.06269 127.2608 392.13809 128.9884 392.13809 137.5706 390.64339 139.1617 389.29339 137.5706 389.29339 129.4706 391.06269 127.2608" style="fill:#FF725E;"></polygon><polygon points="408.51169 152.9917 409.62459 151.5372 409.61229 142.6116 408.19859 140.9722 406.77629 142.6485 406.77629 150.7485 408.51169 152.9917" style="fill:#FF725E;"></polygon><polygon points="395.51319 127.2608 394.40019 128.7154 394.41249 137.6409 395.82619 139.2803 397.24859 137.604 397.24859 129.504 395.51319 127.2608" style="fill:#FF725E;"></polygon><polygon points="396.56369 140.1656 397.81729 138.6228 406.20659 138.6228 407.41609 140.1415 406.20659 141.6603 397.76909 141.6603 396.56369 140.1656" style="fill:#FF725E;"></polygon><polygon points="396.09139 153.6033 397.91079 151.2639 406.14929 151.2639 407.91519 153.6132 407.32629 154.447 396.76059 154.447 396.09139 153.6033" style="fill:#FF725E;"></polygon><polygon points="407.91519 126.8276 406.09579 129.167 397.85719 129.167 396.09139 126.8177 396.68029 125.9839 407.246 125.9839 407.91519 126.8276" style="fill:#FF725E;"></polygon></g></g><polygon points="468.96339 169.9423 281.15509 169.9423 279.88849 166.5073 470.11149 166.5073 468.96339 169.9423" style="fill:#263238;"></polygon></g></g></g></svg>
